<svg width="1098" height="85" viewBox="0 0 1098 85" fill="none" xmlns="http://www.w3.org/2000/svg">
<path d="M506.8 42H0V42.5H506.8V42Z" fill="#535353"/>
<path d="M1096 42H591.2V42.5H1096V42Z" fill="#535353"/>
<path d="M513.4 42.8C513.3 42.7 513.2 42.6 513.2 42.4C513.2 42.3 513.2 42.2 513.3 42.1C513.3 42 513.4 42 513.5 41.9C513.6 41.9 513.7 41.8 513.8 41.9C513.9 41.9 514 42 514.1 42C514.2 42.1 514.2 42.2 514.2 42.2C514.2 42.3 514.2 42.4 514.2 42.5C514.2 42.6 514.1 42.7 514 42.7C513.9 42.7 513.8 42.8 513.7 42.8C513.6 42.9 513.4 42.9 513.4 42.8Z" fill="#0F0F0F"/>
<path d="M513.8 45.8C513.7 45.8 513.6 45.7 513.5 45.7C513.4 45.6 513.4 45.5 513.3 45.4C513.3 45.3 513.3 45.2 513.4 45.1C513.4 45 513.5 44.9 513.6 44.9C513.7 44.9 513.8 44.8 513.9 44.9C514 44.9 514.1 44.9 514.2 45C514.3 45.1 514.3 45.2 514.4 45.2C514.4 45.3 514.4 45.4 514.4 45.5C514.4 45.6 514.3 45.7 514.2 45.7C514 45.7 513.9 45.8 513.8 45.8Z" fill="#0F0F0F"/>
<path d="M513.4 39.8C513.3 39.7 513.3 39.6 513.3 39.5C513.3 39.4 513.4 39.3 513.5 39.2C513.6 39.1 513.7 39.1 513.8 39.1C513.9 39.1 514 39.2 514.1 39.2C514.2 39.3 514.2 39.4 514.2 39.6C514.2 39.7 514.1 39.8 514.1 39.9C514 40 513.9 40 513.8 40C513.6 40 513.5 39.9 513.4 39.8Z" fill="#0F0F0F"/>
<path d="M514.5 48.4C514.4 48.5 514.3 48.5999 514.2 48.5999H514.1C514 48.5999 513.9 48.6 513.8 48.5C513.7 48.4 513.7 48.3 513.7 48.2C513.7 48.1 513.7 48 513.8 47.9C513.9 47.8 514 47.7 514.1 47.7C514.2 47.7 514.2 47.7 514.3 47.7C514.4 47.7 514.4 47.6999 514.5 47.7999C514.6 47.7999 514.6 47.9 514.6 47.9C514.6 48 514.7 47.9999 514.7 48.0999C514.6 48.1999 514.6 48.3 514.5 48.4Z" fill="#0F0F0F"/>
<path d="M513.8 36.9C513.7 36.8 513.7 36.7 513.7 36.5C513.7 36.4 513.8 36.3 513.9 36.2C514 36.1 514.1 36.1 514.3 36.1C514.4 36.1 514.5 36.2 514.6 36.3C514.7 36.4 514.7 36.5 514.7 36.7C514.7 36.9 514.6 36.9 514.5 37C514.4 37.1 514.3 37.1 514.2 37.1H514.1C514 37 513.9 37 513.8 36.9Z" fill="#0F0F0F"/>
<path d="M515.2 51.2C515.2 51.3 515.1 51.3 515.1 51.3C515 51.3 515 51.4 514.9 51.4H514.8C514.7 51.4 514.6 51.4 514.5 51.3C514.4 51.2 514.4 51.1 514.3 51C514.3 50.9 514.3 50.7 514.4 50.6C514.5 50.5 514.6 50.4 514.7 50.4C514.8 50.4 514.8 50.4 514.9 50.4C515 50.4 515 50.4 515.1 50.5C515.2 50.5 515.2 50.6 515.2 50.6C515.2 50.6 515.3 50.7 515.3 50.8C515.3 50.9 515.3 50.9 515.3 51C515.2 51.1 515.2 51.2 515.2 51.2Z" fill="#0F0F0F"/>
<path d="M514.4 34C514.3 33.9 514.3 33.7999 514.3 33.5999C514.3 33.4999 514.3 33.5 514.4 33.4C514.4 33.4 514.5 33.2999 514.6 33.2999C514.6 33.2999 514.7 33.2 514.8 33.2C514.9 33.2 514.9 33.2 515 33.2C515.1 33.2 515.1 33.1999 515.2 33.2999C515.3 33.2999 515.3 33.4 515.3 33.4C515.3 33.5 515.4 33.4999 515.4 33.5999C515.4 33.6999 515.4 33.6999 515.4 33.7999C515.4 33.8999 515.3 33.9999 515.2 34.0999C515.1 34.1999 515 34.2 514.9 34.2H514.8C514.5 34.2 514.4 34.1 514.4 34Z" fill="#0F0F0F"/>
<path d="M516 53.6C516 53.7 516 53.7 516 53.8C516 53.9 516 53.9 516 54C516 54.1 515.9 54.1 515.9 54.1C515.8 54.1 515.8 54.2 515.7 54.2C515.7 54.2 515.6 54.2 515.5 54.2C515.4 54.2 515.3 54.2 515.2 54.1C515.1 54 515 53.9 515 53.8C515 53.7 515 53.6 515.1 53.5C515.2 53.4 515.3 53.3 515.4 53.3C515.5 53.3 515.5 53.3 515.6 53.3C515.7 53.3 515.7 53.3 515.8 53.3C515.9 53.3 515.9 53.4 516 53.4C516 53.5 516 53.5 516 53.6Z" fill="#0F0F0F"/>
<path d="M516 30.7C516.1 30.8 516.1 30.9 516.1 31C516.1 31.1 516 31.2 515.9 31.3C515.8 31.4 515.7 31.4 515.6 31.4C515.5 31.4 515.5 31.4 515.4 31.4C515.3 31.4 515.2 31.3 515.1 31.2C515 31.1 515 31 515.1 30.8C515.1 30.7 515.1 30.7 515.2 30.6C515.2 30.6 515.3 30.5 515.4 30.5C515.4 30.5 515.5 30.5 515.6 30.5C515.7 30.5 515.7 30.5 515.8 30.5C515.9 30.5 516 30.6 516 30.7Z" fill="#0F0F0F"/>
<path d="M517 56.2C517 56.3 517 56.4 517 56.6C516.9 56.7 516.9 56.8 516.7 56.9C516.6 56.9 516.6 56.9 516.5 56.9C516.4 56.9 516.3 56.9 516.2 56.8C516.1 56.8 516.1 56.7 516 56.6C516 56.5 516 56.5 516 56.4C516 56.3 516 56.3 516 56.2C516 56.1 516.1 56.1 516.1 56C516.1 56 516.2 55.9 516.3 55.9C516.3 55.9 516.4 55.9 516.5 55.9C516.6 55.9 516.6 55.9 516.7 55.9C516.8 55.9 516.8 56 516.9 56C517 56.1 517 56.2 517 56.2Z" fill="#0F0F0F"/>
<path d="M517.1 28C517.1 28.1 517.1 28.3 517.1 28.4C517.1 28.5 517 28.6 516.9 28.6C516.8 28.7 516.7 28.7 516.6 28.7C516.5 28.7 516.5 28.7 516.4 28.7C516.3 28.7 516.2 28.6 516.1 28.4C516.1 28.3 516.1 28.1 516.1 28C516.2 27.9 516.3 27.8 516.4 27.7C516.5 27.6 516.7 27.7 516.8 27.7C517 27.8 517.1 27.9 517.1 28Z" fill="#0F0F0F"/>
<path d="M518.3 58.8C518.4 58.9 518.4 59 518.3 59.2C518.3 59.3 518.2 59.4 518.1 59.5C518 59.5 518 59.6 517.9 59.6C517.8 59.6 517.7 59.6 517.7 59.5C517.6 59.5 517.6 59.4 517.5 59.3C517.4 59.2 517.4 59.1 517.5 58.9C517.5 58.8 517.6 58.7 517.7 58.6C517.8 58.5 517.9 58.5 518.1 58.6C518.1 58.6 518.2 58.7 518.3 58.8Z" fill="#0F0F0F"/>
<path d="M518.4 25.5C518.4 25.6 518.4 25.6 518.4 25.7C518.4 25.8 518.4 25.8 518.3 25.9C518.3 26 518.2 26 518.1 26.1C518 26.1 517.9 26.2 517.9 26.2C517.8 26.2 517.7 26.2 517.7 26.1C517.6 26 517.5 25.8999 517.5 25.7999C517.5 25.6999 517.5 25.5 517.5 25.4C517.6 25.3 517.7 25.2 517.8 25.2C517.9 25.2 518.1 25.2 518.2 25.2C518.3 25.2 518.3 25.2999 518.4 25.2999C518.4 25.3999 518.4 25.4 518.4 25.5Z" fill="#0F0F0F"/>
<path d="M519.7 61.2C519.7 61.3 519.8 61.3 519.8 61.4C519.8 61.5 519.8 61.5 519.8 61.6C519.8 61.7 519.8 61.7 519.7 61.8L519.6 61.9C519.5 62 519.4 62 519.3 62C519.2 62 519.1 62 519 61.9C518.9 61.8 518.9 61.7 518.8 61.7C518.8 61.6 518.8 61.5 518.8 61.4C518.8 61.3 518.9 61.2 519 61.2C519.1 61.2 519.1 61.1 519.2 61.1C519.3 61.1 519.3 61.1 519.4 61.1C519.5 61.1 519.5 61.1 519.6 61.2C519.6 61.1 519.7 61.2 519.7 61.2Z" fill="#0F0F0F"/>
<path d="M519.9 23C519.9 23.1 519.9 23.1 519.9 23.2C519.9 23.3 519.9 23.3 519.8 23.4C519.8 23.5 519.7 23.5 519.6 23.6C519.5 23.6 519.4 23.7 519.4 23.7C519.3 23.7 519.2 23.7 519.1 23.6C519 23.6 519 23.5 519 23.5C519 23.5 518.9 23.3999 518.9 23.2999C518.9 23.1999 518.9 23.2 518.9 23.1C518.9 23 518.9 23 519 22.9C519 22.8 519.1 22.7999 519.1 22.7999C519.1 22.7999 519.2 22.7 519.3 22.7C519.4 22.7 519.4 22.7 519.5 22.7C519.6 22.7 519.6 22.6999 519.7 22.7999C519.8 22.7999 519.8 22.9 519.8 22.9C519.9 22.9 519.9 22.9 519.9 23Z" fill="#0F0F0F"/>
<path d="M521.4 63.7C521.4 63.8 521.4 63.8 521.4 63.9C521.4 64 521.4 64 521.3 64.1C521.3 64.2 521.2 64.2 521.2 64.2C521.1 64.3 521 64.3 520.9 64.3C520.8 64.3 520.8 64.3 520.7 64.2C520.6 64.2 520.6 64.1 520.5 64.1C520.4 64 520.4 63.9 520.4 63.7C520.4 63.5 520.5 63.5 520.6 63.4C520.6 63.4 520.7 63.3 520.8 63.3C520.9 63.3 520.9 63.3 521 63.3C521.1 63.3 521.1 63.3 521.2 63.4C521.3 63.4 521.3 63.5 521.4 63.5C521.5 63.5 521.4 63.7 521.4 63.7Z" fill="#0F0F0F"/>
<path d="M521.4 20.2999C521.5 20.3999 521.6 20.5 521.6 20.6C521.6 20.7 521.6 20.9 521.5 21C521.5 21.1 521.4 21.1 521.3 21.1C521.2 21.1 521.2 21.1 521.1 21.1C521 21.1 520.9 21.1 520.8 21C520.7 20.9 520.6 20.8 520.6 20.7C520.6 20.6 520.6 20.5 520.7 20.4C520.8 20.3 520.9 20.2 521 20.2C521.2 20.2 521.3 20.2999 521.4 20.2999Z" fill="#0F0F0F"/>
<path d="M523.2 65.9C523.2 66 523.2 66 523.2 66.1C523.2 66.2 523.2 66.2 523.2 66.3C523.2 66.4 523.1 66.4 523.1 66.5C523 66.6 522.9 66.6 522.8 66.6C522.7 66.6 522.6 66.6 522.5 66.5C522.4 66.4 522.3 66.4 522.3 66.3C522.3 66.2 522.3 66.1 522.3 66C522.3 65.9 522.4 65.8 522.5 65.8C522.6 65.8 522.6 65.7 522.7 65.7C522.8 65.7 522.8 65.7 522.9 65.7C523 65.7 523 65.7 523.1 65.7C523.2 65.7 523.2 65.8 523.3 65.8C523.2 65.8 523.2 65.8 523.2 65.9Z" fill="#0F0F0F"/>
<path d="M522.7 18.9C522.6 18.8 522.6 18.7 522.6 18.6C522.6 18.5 522.6 18.3 522.7 18.2C522.7 18.1 522.8 18.1 522.9 18.1C523 18.1 523.1 18.1 523.1 18.1C523.2 18.1 523.3 18.1 523.3 18.2C523.4 18.2 523.4 18.3 523.5 18.4C523.5 18.5 523.6 18.5 523.5 18.6C523.4 18.7 523.5 18.8 523.4 18.8C523.4 18.9 523.3 18.9 523.2 19C523.1 19 523 19.1 523 19.1C522.9 19 522.8 18.9 522.7 18.9Z" fill="#0F0F0F"/>
<path d="M525.2 67.8C525.3 67.9 525.3 68 525.3 68.1C525.3 68.2 525.2 68.3 525.1 68.4C525 68.5 524.9 68.5 524.8 68.5C524.7 68.5 524.6 68.5 524.5 68.4C524.4 68.4 524.4 68.3 524.3 68.2C524.3 68.1 524.3 68 524.3 67.9C524.3 67.8 524.4 67.7 524.5 67.7C524.6 67.6 524.7 67.6 524.8 67.6C525 67.7 525.1 67.7 525.2 67.8Z" fill="#0F0F0F"/>
<path d="M524.6 16.6C524.6 16.5 524.5 16.4 524.6 16.3C524.6 16.2 524.7 16.1 524.7 16.1C524.8 16 524.9 16 525 16C525.1 16 525.2 16.1 525.3 16.2C525.4 16.3 525.4 16.4 525.4 16.5C525.4 16.6 525.3 16.7 525.3 16.8C525.2 16.9 525.1 16.9 525 16.9C524.9 16.9 524.8 16.9 524.7 16.8C524.7 16.8 524.7 16.7 524.6 16.6Z" fill="#0F0F0F"/>
<path d="M527.2 69.8C527.3 69.9 527.3 70 527.3 70.1C527.3 70.2 527.3 70.3 527.2 70.4C527.2 70.4 527.1 70.5 527 70.5C526.9 70.5 526.9 70.5 526.8 70.6C526.7 70.6 526.7 70.6 526.6 70.6C526.5 70.6 526.5 70.6 526.4 70.5L526.3 70.4C526.3 70.3 526.3 70.3 526.2 70.2C526.2 70.1 526.2 70.1 526.2 70C526.2 69.9 526.2 69.9 526.3 69.8C526.4 69.7 526.5 69.6 526.6 69.6C526.7 69.6 526.8 69.6 526.9 69.6C527.1 69.7 527.1 69.7 527.2 69.8Z" fill="#0F0F0F"/>
<path d="M526.9 14.7C526.9 14.6 526.9 14.5 526.9 14.4C526.9 14.3 527 14.2 527.1 14.2C527.1 14.2 527.2 14.1 527.3 14.1C527.4 14.1 527.4 14.1 527.5 14.1C527.6 14.1 527.6 14.1 527.7 14.2C527.8 14.2 527.8 14.3 527.9 14.3C527.9 14.3 528 14.4 528 14.5C528 14.6 528 14.6 528 14.7C528 14.8 528 14.8 527.9 14.9L527.8 15C527.7 15.1 527.6 15.1 527.5 15.1C527.4 15.1 527.3 15.1 527.2 15C527 14.9 526.9 14.8 526.9 14.7Z" fill="#0F0F0F"/>
<path d="M529.6 71.7C529.6 71.8 529.6 71.9 529.6 71.9C529.6 72 529.6 72.1 529.5 72.1C529.4 72.2 529.4 72.2 529.3 72.2C529.2 72.2 529.1 72.2 529.1 72.2C529 72.2 529 72.2 528.9 72.1C528.8 72.1 528.8 72 528.7 71.9C528.7 71.8 528.7 71.7 528.7 71.6C528.7 71.5 528.8 71.4 528.8 71.4C528.9 71.3 529 71.3 529.1 71.3C529.2 71.3 529.3 71.3 529.3 71.3C529.4 71.3 529.5 71.4 529.5 71.4C529.5 71.5 529.6 71.6 529.6 71.7Z" fill="#0F0F0F"/>
<path d="M529.3 13.1C529.2 13 529.2 12.9 529.2 12.7C529.2 12.6 529.3 12.5 529.4 12.4C529.4 12.4 529.5 12.3 529.6 12.3C529.7 12.3 529.7 12.3 529.8 12.3C529.9 12.3 529.9 12.3 530 12.4C530.1 12.4 530.1 12.5 530.1 12.5C530.1 12.6 530.2 12.6 530.2 12.7C530.2 12.8 530.2 12.8 530.2 12.9C530.2 13 530.2 13 530.1 13.1L530 13.2C529.9 13.3 529.8 13.3 529.7 13.3C529.6 13.3 529.5 13.3 529.5 13.2C529.4 13.3 529.3 13.2 529.3 13.1Z" fill="#0F0F0F"/>
<path d="M532.1 73.2C532.1 73.3 532.1 73.4 532.1 73.6C532.1 73.7 532 73.7 532 73.7C531.9 73.7 531.9 73.8 531.8 73.8C531.7 73.8 531.7 73.8 531.6 73.8C531.5 73.8 531.5 73.8 531.4 73.7C531.3 73.6 531.2 73.5 531.2 73.4C531.2 73.3 531.2 73.1 531.3 73C531.3 72.9 531.4 72.9 531.4 72.8C531.5 72.8 531.5 72.7 531.6 72.7C531.7 72.7 531.8 72.7 531.9 72.8C531.9 73 532 73.1 532.1 73.2Z" fill="#0F0F0F"/>
<path d="M531.8 11.6C531.7 11.5 531.7 11.4 531.8 11.2C531.8 11.1 531.9 11 532 10.9C532.1 10.8 532.2 10.8 532.4 10.9C532.5 10.9 532.6 11 532.7 11.1C532.8 11.2 532.8 11.3 532.7 11.5C532.7 11.6 532.6 11.7 532.5 11.8C532.4 11.9 532.4 11.9 532.3 11.9C532.2 11.9 532.1 11.9 532 11.8C531.9 11.7 531.8 11.7 531.8 11.6Z" fill="#0F0F0F"/>
<path d="M534.6 74.4C534.7 74.5 534.7 74.5999 534.7 74.6999C534.7 74.7999 534.7 74.8999 534.6 74.9999C534.6 75.0999 534.5 75.0999 534.4 75.1999C534.3 75.1999 534.2 75.1999 534.1 75.1999C534 75.1999 533.9 75.0999 533.9 75.0999C533.8 74.9999 533.8 74.9 533.8 74.9C533.8 74.8 533.8 74.6999 533.8 74.5999C533.9 74.4999 534 74.4 534.1 74.4C534.2 74.3 534.4 74.4 534.5 74.4C534.5 74.3 534.5 74.3 534.6 74.4Z" fill="#0F0F0F"/>
<path d="M534.4 10.3C534.3 10.2 534.3 9.99999 534.4 9.89999C534.5 9.79999 534.5 9.69999 534.7 9.59999C534.9 9.49999 534.9 9.59999 535.1 9.59999C535.2 9.59999 535.3 9.79999 535.4 9.89999C535.4 9.99999 535.5 10.2 535.4 10.3C535.3 10.4 535.3 10.5 535.1 10.6C535 10.6 535 10.6 534.9 10.6C534.8 10.6 534.7 10.6 534.6 10.5C534.5 10.4 534.4 10.4 534.4 10.3Z" fill="#0F0F0F"/>
<path d="M537.3 75.6C537.4 75.7 537.4 75.8 537.3 76C537.3 76.1 537.2 76.2 537 76.3C536.9 76.4 536.8 76.4 536.6 76.3C536.5 76.3 536.5 76.3 536.4 76.2C536.4 76.2 536.3 76.1 536.3 76C536.3 76 536.3 75.9 536.3 75.8C536.3 75.7 536.3 75.7 536.3 75.6C536.3 75.5 536.4 75.4 536.5 75.4C536.6 75.3 536.7 75.3 536.7 75.3C536.8 75.3 536.9 75.3 536.9 75.3C537.2 75.3 537.3 75.4 537.3 75.6Z" fill="#0F0F0F"/>
<path d="M537.1 9.2C537.1 9.1 537.1 9.1 537.1 9C537.1 8.9 537.1 8.9 537.1 8.8C537.1 8.7 537.2 8.7 537.2 8.6C537.3 8.6 537.3 8.5 537.4 8.5C537.5 8.5 537.6 8.5 537.8 8.5C537.9 8.5 538 8.6 538 8.8C538 8.9 538 8.9 538 9C538 9.1 538 9.1 538 9.2C538 9.2 537.9 9.3 537.9 9.4C537.9 9.4 537.8 9.5 537.7 9.5C537.6 9.5 537.6 9.5 537.5 9.5C537.4 9.5 537.3 9.5 537.2 9.4C537.2 9.4 537.1 9.3 537.1 9.2Z" fill="#0F0F0F"/>
<path d="M540.1 76.4C540.1 76.5 540.2 76.5 540.2 76.6C540.2 76.7 540.2 76.7 540.2 76.8C540.2 76.9 540.2 76.9 540.1 77L540 77.1C539.9 77.1 539.9 77.2 539.8 77.2C539.7 77.2 539.7 77.2 539.6 77.2C539.5 77.2 539.4 77.1 539.3 77C539.2 76.9 539.2 76.8 539.2 76.6C539.2 76.5 539.3 76.4 539.4 76.4C539.5 76.3 539.6 76.3 539.6 76.3C539.7 76.3 539.7 76.3 539.8 76.3C539.9 76.3 539.9 76.3 540 76.4C540 76.3 540.1 76.3 540.1 76.4Z" fill="#0F0F0F"/>
<path d="M540 8.59999C539.9 8.49999 539.8 8.39999 539.8 8.29999C539.8 8.19999 539.8 8.09999 539.9 7.99999C540 7.89999 540.1 7.79999 540.2 7.79999C540.3 7.79999 540.4 7.79999 540.5 7.89999C540.6 7.99999 540.7 8.09999 540.7 8.19999C540.7 8.29999 540.7 8.39999 540.6 8.49999C540.5 8.59999 540.4 8.69999 540.3 8.69999H540.2C540.2 8.69999 540.1 8.59999 540 8.59999Z" fill="#0F0F0F"/>
<path d="M542.9 77C542.9 77 543 77.1 543 77.2C543 77.3 543 77.3 543 77.4C543 77.5 542.9 77.6 542.9 77.6C542.8 77.7 542.8 77.7 542.7 77.7C542.6 77.7 542.5 77.7 542.4 77.7C542.3 77.7 542.2 77.6 542.2 77.6C542.1 77.5 542.1 77.4 542.1 77.4C542.1 77.3 542.1 77.2 542.1 77.1C542.1 77 542.2 76.9 542.2 76.9C542.3 76.9 542.4 76.8 542.4 76.8C542.5 76.8 542.5 76.8 542.6 76.8C542.7 76.8 542.7 76.8 542.8 76.9L542.9 77Z" fill="#0F0F0F"/>
<path d="M542.8 7.89998C542.7 7.79998 542.7 7.69998 542.6 7.59998C542.6 7.49998 542.6 7.39998 542.7 7.29998C542.8 7.19998 542.9 7.09998 543 7.09998C543.1 7.09998 543.3 7.09998 543.4 7.19998C543.5 7.29998 543.6 7.39998 543.6 7.49998C543.6 7.59998 543.6 7.59998 543.6 7.69998C543.6 7.79998 543.6 7.79998 543.5 7.89998C543.5 7.99998 543.4 7.99998 543.4 7.99998C543.3 7.99998 543.3 8.09998 543.2 8.09998H543.1C543.1 8.09998 542.9 7.99998 542.8 7.89998Z" fill="#0F0F0F"/>
<path d="M545.8 77.4C545.9 77.5 545.9 77.6 545.9 77.7C545.9 77.8 545.8 77.9 545.7 78C545.6 78.1 545.5 78.1 545.4 78.1C545.3 78.1 545.2 78 545.1 78C545 77.9 545 77.8 545 77.7C545 77.6 545 77.5 545.1 77.4C545.2 77.3 545.3 77.2 545.4 77.2H545.5C545.6 77.2 545.7 77.3 545.8 77.4Z" fill="#0F0F0F"/>
<path d="M545.7 7.59995C545.6 7.49995 545.6 7.39995 545.6 7.19995C545.6 7.09995 545.7 6.99995 545.8 6.89995C545.9 6.79995 546 6.69995 546.1 6.69995C546.2 6.69995 546.3 6.79995 546.4 6.89995C546.5 6.99995 546.6 7.09995 546.6 7.19995C546.6 7.29995 546.6 7.49995 546.5 7.59995C546.4 7.69995 546.3 7.69995 546.2 7.69995H546.1C545.9 7.69995 545.8 7.69995 545.7 7.59995Z" fill="#0F0F0F"/>
<path d="M548.6 77.5C548.7 77.6 548.7 77.7 548.7 77.9C548.7 78 548.6 78.1 548.5 78.2C548.4 78.3 548.3 78.3 548.2 78.3C548.1 78.3 547.9 78.3 547.8 78.2C547.7 78.1 547.7 78 547.7 77.9C547.7 77.8 547.7 77.7 547.8 77.5C547.9 77.4 548 77.3 548.1 77.3H548.2C548.4 77.4 548.6 77.4 548.6 77.5Z" fill="#0F0F0F"/>
<path d="M548.6 7.49995C548.5 7.39995 548.4 7.29995 548.4 7.19995C548.4 7.09995 548.4 6.99995 548.5 6.89995C548.6 6.79995 548.6 6.79995 548.7 6.69995C548.8 6.69995 548.9 6.69995 549 6.69995C549.1 6.69995 549.2 6.79995 549.2 6.79995C549.3 6.89995 549.3 6.99995 549.3 7.09995C549.3 7.19995 549.3 7.29995 549.3 7.39995C549.3 7.49995 549.2 7.59995 549.1 7.59995C549 7.69995 548.9 7.69995 548.8 7.69995C548.9 7.59995 548.7 7.59995 548.6 7.49995Z" fill="#0F0F0F"/>
<path d="M551.5 77.4C551.6 77.5 551.6 77.6 551.7 77.7C551.7 77.8 551.7 77.9 551.6 78C551.5 78.1 551.4 78.2 551.3 78.2C551.2 78.2 551.1 78.2 551 78.1C550.9 78 550.8 77.9 550.8 77.8C550.8 77.7 550.8 77.6 550.9 77.5C551 77.4 551.1 77.3 551.2 77.3C551.3 77.3 551.4 77.3 551.5 77.4Z" fill="#0F0F0F"/>
<path d="M551.6 7.59996C551.5 7.49996 551.5 7.39996 551.5 7.29996C551.5 7.19996 551.6 7.09996 551.6 6.99996C551.7 6.89996 551.8 6.89996 551.9 6.89996C552 6.89996 552.1 6.99996 552.2 6.99996C552.3 7.09996 552.3 7.19996 552.3 7.29996C552.3 7.39996 552.2 7.49996 552.2 7.59996C552.1 7.69996 552 7.69996 551.9 7.69996C551.7 7.69996 551.6 7.69996 551.6 7.59996Z" fill="#0F0F0F"/>
<path d="M554.6 77.4C554.6 77.5 554.6 77.6 554.6 77.7C554.6 77.8 554.5 77.9 554.4 77.9C554.3 77.9 554.2 78 554.1 78C554 78 553.9 78 553.8 77.9C553.7 77.8 553.7 77.8 553.6 77.7C553.6 77.6 553.6 77.5 553.6 77.4C553.6 77.3 553.7 77.2 553.8 77.2C553.9 77.1 554 77.1 554.1 77.1C554.2 77.1 554.4 77.1 554.5 77.2C554.5 77.1 554.6 77.3 554.6 77.4Z" fill="#0F0F0F"/>
<path d="M554.4 7.89998C554.3 7.79998 554.3 7.69998 554.3 7.49998C554.3 7.39998 554.4 7.29998 554.5 7.19998C554.6 7.09998 554.7 7.09998 554.8 7.09998C554.9 7.09998 555 7.19998 555.1 7.29998C555.2 7.39998 555.2 7.49998 555.2 7.69998C555.2 7.89998 555.1 7.89998 555 7.99998C554.9 8.09998 554.8 8.09998 554.6 8.09998C554.6 8.09998 554.6 8.09998 554.5 8.09998C554.6 8.09998 554.5 7.99998 554.4 7.89998Z" fill="#0F0F0F"/>
<path d="M557.3 76.5C557.4 76.6 557.5 76.7 557.5 76.8C557.5 76.9 557.5 77.1 557.4 77.2C557.3 77.3 557.2 77.4 557.1 77.4C557 77.4 556.8 77.4 556.7 77.3C556.6 77.2 556.5 77.1 556.5 77C556.5 76.9 556.5 76.7 556.6 76.6C556.7 76.5 556.8 76.4 556.9 76.4C557.1 76.4 557.2 76.5 557.3 76.5Z" fill="#0F0F0F"/>
<path d="M557.2 8.39998C557.1 8.29998 557.1 8.19998 557.1 7.99998C557.1 7.89998 557.2 7.79998 557.3 7.69998C557.4 7.59998 557.5 7.59998 557.7 7.59998C557.8 7.59998 557.9 7.69998 558 7.79998C558.1 7.89998 558.1 7.99998 558.1 8.09998C558.1 8.19998 558 8.29998 557.9 8.39998C557.8 8.49998 557.7 8.49998 557.6 8.49998H557.5C557.4 8.59998 557.3 8.59998 557.2 8.39998Z" fill="#0F0F0F"/>
<path d="M560.3 76C560.3 76.1 560.3 76.2 560.2 76.3C560.1 76.4 560 76.5 559.9 76.5C559.8 76.5 559.7 76.5 559.5 76.5C559.4 76.5 559.3 76.3 559.3 76.2C559.3 76.1 559.3 76.1 559.3 76C559.3 75.9 559.3 75.9 559.4 75.8C559.5 75.7 559.5 75.7 559.5 75.7C559.6 75.7 559.6 75.6 559.7 75.6H559.8C559.9 75.6 560 75.6 560.1 75.7C560.2 75.8 560.2 75.9 560.3 76Z" fill="#0F0F0F"/>
<path d="M560 9.2C560 9.1 560 9 560 8.9C560 8.8 560.1 8.7 560.2 8.6C560.3 8.6 560.3 8.6 560.4 8.5C560.5 8.5 560.5 8.5 560.6 8.5C560.7 8.5 560.8 8.6 560.9 8.7C560.9 8.8 561 8.9 560.9 9.1C560.9 9.2 560.8 9.3 560.7 9.4C560.6 9.5 560.5 9.5 560.3 9.4C560.2 9.4 560.1 9.3 560 9.2Z" fill="#0F0F0F"/>
<path d="M563 75C563 75.1 563 75.2 562.9 75.3C562.8 75.4 562.7 75.5 562.6 75.5C562.5 75.5 562.4 75.5 562.3 75.5C562.2 75.4 562.1 75.4 562.1 75.2C562.1 75.1 562.1 75 562.1 74.8C562.2 74.7 562.2 74.6 562.3 74.6H562.4C562.5 74.6 562.6 74.6 562.7 74.7C562.9 74.8 563 74.9 563 75Z" fill="#0F0F0F"/>
<path d="M562.7 10.3C562.7 10.2 562.7 10.1 562.7 9.89997C562.7 9.69997 562.9 9.69998 563 9.59998C563.1 9.59998 563.2 9.59998 563.4 9.59998C563.5 9.69998 563.6 9.69997 563.7 9.89997C563.7 9.99997 563.7 10.2 563.7 10.3C563.7 10.4 563.6 10.5 563.5 10.5C563.4 10.5 563.3 10.6 563.2 10.6C563.1 10.6 563.1 10.6 563 10.6C562.9 10.5 562.8 10.4 562.7 10.3Z" fill="#0F0F0F"/>
<path d="M565.7 73.8C565.7 74.1 565.5 74.3 565.2 74.3C564.9 74.3 564.7 74.1 564.7 73.8C564.7 73.5 564.9 73.3 565.2 73.3C565.5 73.3 565.7 73.5 565.7 73.8Z" fill="#0F0F0F"/>
<path d="M565.3 11.5C565.3 11.4 565.3 11.2 565.3 11.1C565.4 11 565.5 10.9 565.6 10.9C565.7 10.9 565.8 10.9 566 10.9C566.1 10.9 566.1 11 566.2 11C566.2 11 566.3 11.1 566.3 11.2C566.3 11.3 566.3 11.3 566.3 11.4C566.3 11.5 566.3 11.5 566.2 11.6C566.2 11.7 566.1 11.7 566 11.8C565.9 11.9 565.8 11.9 565.8 11.9C565.7 11.9 565.6 11.9 565.6 11.8C565.4 11.7 565.4 11.6 565.3 11.5Z" fill="#0F0F0F"/>
<path d="M568.2 72C568.3 72.1 568.3 72.2 568.3 72.4C568.3 72.5 568.2 72.6 568.1 72.7C568 72.7 567.9 72.8 567.8 72.8C567.7 72.8 567.6 72.8 567.6 72.7C567.5 72.7 567.5 72.6 567.4 72.5C567.3 72.4 567.3 72.3 567.3 72.1C567.3 72 567.4 71.9 567.5 71.8C567.5 71.8 567.6 71.7 567.7 71.7C567.8 71.7 567.8 71.7 567.9 71.7C568 71.7 568 71.7 568.1 71.8C568.1 71.9 568.2 72 568.2 72Z" fill="#0F0F0F"/>
<path d="M567.8 13.1C567.8 13 567.8 12.9 567.8 12.8C567.8 12.7 567.9 12.6 567.9 12.6C568 12.5 568.1 12.5 568.1 12.5C568.2 12.5 568.3 12.5 568.4 12.5C568.5 12.5 568.6 12.6 568.6 12.7C568.7 12.8 568.7 12.9 568.7 13C568.7 13.1 568.7 13.2 568.6 13.3C568.5 13.4 568.4 13.5 568.3 13.5C568.2 13.5 568 13.5 567.9 13.4C567.9 13.2 567.9 13.1 567.8 13.1Z" fill="#0F0F0F"/>
<path d="M570.6 58.5C570.9 59.7 570.8 60.6 570.4 61C570.2 61.2 569.8 61.4 569.5 61.5C569.2 61.6 568.8 61.5999 568.5 61.5999C567.8 61.4999 567.1 61.2 566.6 60.7C566.3 60.5 566.1 60.2 565.9 59.9C565.7 59.6 565.7 59.2 565.6 58.9C565.6 58.5 565.8 58.1 566.1 57.7C566.2 57.5 566.4 57.3999 566.6 57.2999C566.8 57.1999 567 57.2 567.2 57.2C567.9 57.2 568.5 57.3 569.2 57.4C569.5 57.4 569.8 57.5999 570.1 57.7999C570.3 57.8999 570.5 58.2 570.6 58.5Z" fill="#0F0F0F"/>
<path d="M570.7 70.5C570.7 70.6 570.7 70.6 570.7 70.7C570.7 70.8 570.7 70.8 570.6 70.9C570.6 71 570.5 71 570.5 71C570.4 71.1 570.3 71.1 570.2 71.1C570.1 71.1 570 71.1 570 71C569.9 71 569.9 70.9 569.8 70.9C569.7 70.8 569.7 70.7 569.7 70.5C569.7 70.4 569.8 70.3 569.9 70.2C570 70.2 570 70.1 570.1 70.1C570.2 70.1 570.2 70.1 570.3 70.1C570.4 70.1 570.4 70.1 570.5 70.2C570.6 70.2 570.6 70.3 570.6 70.3C570.6 70.3 570.7 70.4 570.7 70.5Z" fill="#0F0F0F"/>
<path d="M570.2 14.8C570.2 14.8 570.1 14.7 570.1 14.6C570.1 14.5 570.1 14.5 570.1 14.4C570.1 14.3 570.2 14.3 570.2 14.2L570.3 14.1C570.4 14.1 570.4 14 570.5 14C570.6 14 570.6 14 570.7 14C570.8 14 570.8 14 570.9 14.1C571 14.2 571.1 14.3 571.1 14.4C571.1 14.5 571.1 14.6 571 14.8C571 14.9 570.9 14.9 570.8 14.9C570.7 14.9 570.7 14.9 570.6 14.9C570.5 14.9 570.4 14.9 570.3 14.8C570.3 14.9 570.3 14.9 570.2 14.8Z" fill="#0F0F0F"/>
<path d="M572.5 45.8C572.4 45.6 572.3 45.4 572 45.3C571.8 45.2 571.6 45.1 571.3 45.1C570.6 45 570.2 44.8 570.3 43.9C570.3 42.8 570.1 41.7 569.6 40.8C569.1 39.8 568.4 39 567.5 38.4C565.5 37.1 563.2 36.3 560.8 36.3C559 36.1 557.2 35.9 555.4 35.6C556.3 35.1 557.1 34.7 557.8 34.2C560.1 32.9 562.1 31.2 563.8 29.2C564.6 28.2 565.1 27 565.3 25.7C565.5 24.4 565.3 23.1 564.7 21.9C563.4 19.4 561.1 18.8 558.6 18.9C556.7 18.9 554.8 19.4 553 20.2C548.9 22.2 545.1 24.6 541.7 27.5C540.3 28.6 538.9 29.8 537.4 31C537.6 30 537.8 29.2 537.9 28.3C538.4 25.7 538.1 23 536.8 20.6C536.5 20.1 536.2 19.6 535.7 19.3C535.2 18.9 534.7 18.7 534.2 18.6C534 18.5 533.8 18.6 533.6 18.6C533.4 18.7 533.2 18.8 533.1 19.1C532.9 19.3 532.9 19.5 532.9 19.8C532.9 20 532.9 20.3 533.1 20.5C533.3 20.8 533.6 21.1 533.9 21.4C534.4 21.8 534.8 22.4 535.1 23C535.4 23.6 535.5 24.3 535.5 24.9C535.7 28.5 534.3 31.6 533 34.8C532.9 35 532.7 35.2 532.5 35.4C531.3 36.6 530 37.7 528.8 39C526.7 41.4 524.6 43.7 523.5 46.8C523 48.3 522.9 49.8 523.3 51.3C523.7 52.8 524.5 54.2 525.6 55.2C526 55.5 526.5 55.7 527 55.7C527.5 55.7 528 55.5 528.4 55.1C529.1 54.4 529.6 53.5 530 52.6C534.7 42.8 541 34 548.8 26.4C551 24.1 553.9 22.6 557 22C558.8 21.7 560.9 23.7 561 25.3C561.1 27.6 559.9 29.1 558.4 30.4C556.2 32.3 553.6 33.9 550.9 35C549.5 35.6 548.2 36.4 547 37.3C546.4 37.8 545.9 38.4 545.7 39.2C545.5 39.9 545.4 40.7 545.6 41.5C545.8 42.2 546.1 42.7 546.7 43.1C547.2 43.5 547.9 43.7 548.5 43.7C552 43.9 555.6 44 559.1 44.3C560.6 44.4 562.1 44.4 563.2 45.7C563.2 45.8 563.1 45.8 563 45.9C562.9 45.9 562.8 46 562.8 46C555.4 47.3 548.3 49.5 541.4 52.5C540 53.1 538.8 54 537.7 55.1C535.9 57 535.8 59.9 538.5 61.4C541.5 63.1 544.6 62.8 547.8 62.3C553.5 61.4 558.5 58.8 563.3 55.5C565.8 53.8 567.8 51.5 569.3 48.9C569.7 48.2 570.1 47.8 571 47.9C571.3 48 571.5 48 571.8 47.9C572 47.8 572.3 47.7 572.5 47.4C572.6 47.2 572.7 47 572.8 46.8C572.7 46.2 572.6 46 572.5 45.8ZM563.9 48.9C563.5 50.2 562.7 51.4 561.6 52.2C557.3 55.7 552.5 58.4 547.1 59.3C546.4 59.4 545.8 59.4 545.1 59.5C544.4 59.5 543.6 59.5 542.9 59.2C542.6 59.1 542.4 59 542.2 58.8C542 58.6 541.8 58.4 541.7 58.1C541.6 57.8 541.5 57.5 541.6 57.3C541.6 57 541.7 56.7 541.8 56.5C542.1 55.8 542.6 55.2 543.3 54.8C546.4 52.8 549.8 51.9 553.2 50.8C556.4 49.8 559.7 48.9 563.1 48.3C564 47.9 564.1 48.2 563.9 48.9Z" fill="#0F0F0F"/>
<path d="M572.9 68.4C573 68.5 573 68.6 573 68.7C573 68.8 572.9 68.9 572.8 69C572.7 69.1 572.6 69.1 572.5 69.1C572.4 69.1 572.4 69.1 572.3 69C572.2 69 572.2 68.9 572.1 68.9C572 68.8 572 68.7 572 68.6C572 68.5 572.1 68.4 572.2 68.3C572.3 68.2 572.4 68.2 572.6 68.2C572.7 68.2 572.8 68.3 572.9 68.4Z" fill="#0F0F0F"/>
<path d="M573.2 16.1C573.3 16.2 573.3 16.3 573.3 16.3C573.3 16.4 573.3 16.5 573.3 16.6C573.3 16.7 573.2 16.8 573.1 16.8C573 16.8 572.9 16.9 572.8 16.9C572.7 16.9 572.6 16.9 572.5 16.8C572.5 16.8 572.4 16.7 572.4 16.6C572.4 16.5 572.4 16.5 572.4 16.4C572.4 16.3 572.4 16.3 572.4 16.2C572.4 16.1 572.5 16.1 572.5 16C572.5 16 572.6 15.9 572.7 15.9C572.8 15.9 572.8 15.9 572.9 15.9C573 15.9 573 15.9 573.1 15.9C573.1 16 573.2 16 573.2 16.1Z" fill="#0F0F0F"/>
<path d="M575.1 66.4C575.1 66.5 575.1 66.5 575.1 66.6C575.1 66.7 575.1 66.7 575.1 66.8C575.1 66.9 575.1 66.9 575 67C574.9 67.1 574.8 67.1 574.6 67.1C574.5 67.1 574.4 67.1 574.3 67C574.3 67 574.2 66.9 574.2 66.8C574.2 66.7 574.2 66.7 574.2 66.6C574.2 66.5 574.2 66.5 574.2 66.4C574.2 66.3 574.3 66.3 574.3 66.2L574.4 66.1C574.5 66.1 574.5 66.1 574.6 66.1C574.7 66.1 574.7 66.1 574.8 66.1C574.9 66.1 574.9 66.2 575 66.2C575 66.3 575.1 66.4 575.1 66.4Z" fill="#0F0F0F"/>
<path d="M575.3 18.2C575.4 18.3 575.4 18.4 575.4 18.5C575.4 18.6 575.3 18.7 575.3 18.8C575.2 18.9 575.1 18.9 575 18.9C574.9 18.9 574.8 18.9 574.7 18.8C574.6 18.8 574.6 18.7 574.5 18.6C574.5 18.5 574.4 18.4 574.5 18.3C574.5 18.2 574.6 18.1 574.6 18.1C574.7 18 574.8 18 574.9 18C575.1 18 575.2 18.1 575.3 18.2Z" fill="#0F0F0F"/>
<path d="M576.9 64C577 64.1 577.1 64.2 577.1 64.3C577.1 64.4 577.1 64.6 577 64.7C577 64.7 576.9 64.8 576.8 64.8C576.7 64.8 576.7 64.8 576.6 64.8C576.5 64.8 576.4 64.8 576.3 64.7C576.2 64.6 576.1 64.5 576.1 64.4C576.1 64.3 576.1 64.1 576.2 64C576.2 64 576.3 63.9 576.4 63.9C576.5 63.9 576.5 63.9 576.6 63.8C576.7 63.8 576.7 63.8 576.8 63.8C576.8 64 576.8 64 576.9 64Z" fill="#0F0F0F"/>
<path d="M577.2 20.4C577.3 20.5 577.3 20.6 577.3 20.8C577.3 21 577.2 21 577.1 21.1C577 21.2 576.9 21.2 576.8 21.2C576.7 21.2 576.6 21.2 576.6 21.2C576.5 21.2 576.5 21.1 576.4 21.1C576.3 21 576.3 20.9 576.3 20.7C576.3 20.6 576.4 20.5 576.5 20.4C576.6 20.3 576.7 20.3 576.9 20.3C577 20.3 577.1 20.3 577.2 20.4Z" fill="#0F0F0F"/>
<path d="M578.8 61.9C578.8 62 578.8 62.1 578.7 62.3C578.7 62.4 578.6 62.4 578.5 62.5C578.4 62.5 578.4 62.6 578.3 62.6C578.2 62.6 578.1 62.6 578 62.5L577.9 62.4C577.9 62.3 577.8 62.3 577.8 62.2C577.8 62.1 577.8 62.1 577.8 62C577.8 61.9 577.8 61.9 577.9 61.8C577.9 61.7 578 61.7 578 61.7C578.1 61.7 578.1 61.6 578.2 61.6C578.3 61.6 578.3 61.6 578.4 61.6C578.5 61.6 578.5 61.6 578.6 61.7C578.7 61.7 578.8 61.8 578.8 61.9Z" fill="#0F0F0F"/>
<path d="M578.9 22.8C578.9 22.9 579 22.9 579 23C579 23.1 579 23.1 579 23.2C579 23.3 579 23.3 578.9 23.4C578.9 23.5 578.8 23.5 578.8 23.5C578.7 23.5 578.6 23.6 578.5 23.6C578.4 23.6 578.3 23.6 578.3 23.5C578.2 23.5 578.2 23.4 578.1 23.3C578 23.2 578 23.1 578 22.9C578 22.8 578.1 22.7 578.2 22.6C578.2 22.6 578.3 22.5 578.4 22.5C578.5 22.5 578.5 22.5 578.6 22.5C578.7 22.5 578.7 22.5 578.8 22.6C578.9 22.7 578.9 22.8 578.9 22.8Z" fill="#0F0F0F"/>
<path d="M580.4 59.3C580.4 59.4 580.4 59.4 580.4 59.5C580.4 59.6 580.4 59.6 580.3 59.7C580.3 59.8 580.2 59.8 580.2 59.9C580.2 59.9 580.1 60 580 60C579.9 60 579.9 60 579.8 60C579.7 60 579.7 60 579.6 59.9C579.5 59.9 579.5 59.8 579.4 59.8C579.4 59.7 579.3 59.7 579.3 59.6C579.3 59.5 579.3 59.5 579.3 59.4C579.3 59.3 579.3 59.3 579.4 59.2C579.4 59.1 579.5 59.1 579.5 59.1C579.6 59.1 579.6 59 579.7 59C579.8 59 579.8 59 579.9 59C580 59 580 59 580.1 59.1C580.2 59.1 580.2 59.2 580.3 59.2C580.3 59.2 580.3 59.3 580.4 59.3Z" fill="#0F0F0F"/>
<path d="M580.5 25.4C580.6 25.5 580.6 25.6 580.5 25.8C580.5 25.9 580.4 26 580.3 26.1C580.2 26.1 580.1 26.2 580.1 26.2C580 26.2 579.9 26.2 579.9 26.1C579.8 26.1 579.8 26 579.7 25.9C579.7 25.8 579.6 25.8 579.6 25.7C579.6 25.6 579.6 25.6 579.6 25.5C579.6 25.4 579.7 25.4 579.7 25.3L579.8 25.2C579.9 25.1 580 25.1 580.2 25.2C580.3 25.2 580.3 25.2 580.4 25.3C580.4 25.3 580.4 25.3 580.5 25.4Z" fill="#0F0F0F"/>
<path d="M581.6 56.6C581.6 56.7 581.7 56.8 581.6 56.9C581.6 57 581.5 57.1 581.4 57.2C581.3 57.3 581.2 57.3 581.1 57.3C581 57.3 581 57.3 580.9 57.3C580.8 57.2 580.7 57.1 580.6 57C580.6 56.9 580.6 56.8 580.6 56.6C580.7 56.5 580.8 56.4 580.9 56.3C581 56.3 581.2 56.3 581.3 56.3C581.5 56.4 581.6 56.5 581.6 56.6Z" fill="#0F0F0F"/>
<path d="M581.8 28C581.9 28.1 581.9 28.2 581.8 28.4C581.7 28.5 581.7 28.6 581.5 28.7C581.4 28.7 581.4 28.7 581.3 28.7C581.2 28.7 581.1 28.7 581 28.6C580.9 28.5 580.8 28.4 580.8 28.3C580.8 28.2 580.8 28.1 580.8 28C580.8 27.9 580.9 27.8 581 27.8C581 27.8 581.1 27.8 581.2 27.8C581.3 27.8 581.3 27.8 581.4 27.8C581.5 27.8 581.5 27.9 581.6 27.9C581.7 27.9 581.7 28 581.8 28Z" fill="#0F0F0F"/>
<path d="M582.7 53.8C582.8 53.9 582.8 54 582.8 54.1C582.8 54.2 582.7 54.3 582.6 54.4C582.5 54.5 582.4 54.5 582.3 54.5H582.2C582.1 54.5 582.1 54.4 582 54.4C581.9 54.4 581.9 54.3 581.9 54.2C581.9 54.1 581.8 54.1 581.8 54C581.8 53.9 581.8 53.9 581.8 53.8C581.8 53.7 581.9 53.7 581.9 53.6C582 53.6 582 53.5 582.1 53.5C582.2 53.5 582.2 53.5 582.3 53.5C582.4 53.5 582.4 53.5 582.5 53.5C582.6 53.6 582.7 53.7 582.7 53.8Z" fill="#0F0F0F"/>
<path d="M582 31.3C581.9 31.2 581.8 31.1 581.8 31C581.8 30.9 581.8 30.8 581.9 30.7C582 30.6 582.1 30.5 582.2 30.5C582.3 30.5 582.4 30.5 582.5 30.6C582.6 30.7 582.7 30.8 582.7 30.9C582.7 31 582.7 31.1 582.6 31.2C582.5 31.3 582.5 31.4 582.3 31.4C582.2 31.4 582.2 31.4 582.1 31.4C582.3 31.4 582.1 31.4 582 31.3Z" fill="#0F0F0F"/>
<path d="M583.6 51C583.7 51.1 583.7 51.2 583.7 51.3C583.7 51.4 583.6 51.5 583.5 51.6C583.4 51.7 583.3 51.7 583.2 51.7H583.1C583 51.7 583 51.6 582.9 51.6C582.8 51.6 582.8 51.5 582.8 51.4C582.8 51.4 582.7 51.3 582.7 51.2C582.7 51.1 582.7 51.1 582.7 51C582.7 50.9 582.8 50.9 582.8 50.8L582.9 50.7C583 50.7 583 50.7 583.1 50.6C583.2 50.6 583.2 50.6 583.3 50.6C583.4 50.8 583.5 50.9 583.6 51Z" fill="#0F0F0F"/>
<path d="M582.7 33.6C582.7 33.5 582.8 33.4 582.9 33.4C583 33.3 583.1 33.3 583.2 33.3C583.3 33.3 583.4 33.3 583.5 33.4C583.6 33.4 583.7 33.5 583.7 33.6C583.7 33.7 583.7 33.8 583.7 33.9C583.7 34 583.6 34.1 583.6 34.2C583.5 34.3 583.5 34.3 583.4 34.3H583.3C583.2 34.3 583.1 34.3 583 34.2C582.9 34.1 582.8 34 582.8 33.9C582.7 33.8 582.7 33.7 582.7 33.6Z" fill="#0F0F0F"/>
<path d="M584.2 48C584.3 48.1 584.3 48.2 584.3 48.4C584.3 48.5 584.2 48.6 584.1 48.7C584 48.8 583.9 48.8 583.8 48.8H583.7C583.6 48.8 583.5 48.7 583.4 48.6C583.3 48.5 583.3 48.4 583.3 48.3C583.3 48.2 583.4 48.1 583.5 48C583.6 47.9 583.7 47.9 583.8 47.9C584 47.9 584.1 47.9 584.2 48Z" fill="#0F0F0F"/>
<path d="M583.5 36.2C583.6 36.2 583.6 36.2 583.7 36.1C583.8 36.1 584 36.1 584.1 36.2C584.2 36.3 584.3 36.4 584.3 36.5C584.3 36.6 584.3 36.6 584.3 36.7C584.3 36.8 584.3 36.8 584.2 36.9L584.1 37C584 37 584 37 583.9 37.1H583.8C583.7 37.1 583.6 37.1 583.5 37C583.4 36.9 583.4 36.8 583.3 36.7C583.3 36.6 583.3 36.6 583.3 36.5C583.3 36.4 583.3 36.4 583.4 36.3L583.5 36.2Z" fill="#0F0F0F"/>
<path d="M584.6 45.2C584.6 45.3 584.6 45.3 584.6 45.4C584.6 45.5 584.5 45.6 584.4 45.7C584.3 45.8 584.2 45.8 584.1 45.8H584C583.9 45.8 583.9 45.8 583.8 45.8C583.7 45.8 583.7 45.7 583.7 45.7C583.7 45.6 583.6 45.6 583.6 45.5C583.6 45.4 583.6 45.4 583.6 45.3C583.6 45.2 583.6 45.2 583.6 45.1C583.6 45 583.7 45 583.7 45C583.8 45 583.8 44.9 583.9 44.9C584 44.9 584 44.9 584.1 44.9C584.2 44.9 584.2 44.9 584.3 44.9C584.4 44.9 584.4 45 584.5 45C584.6 45.1 584.6 45.2 584.6 45.2Z" fill="#0F0F0F"/>
<path d="M584.2 39C584.3 39 584.4 39 584.5 39.1C584.6 39.2 584.6 39.2 584.7 39.3C584.7 39.4 584.7 39.5 584.7 39.6C584.7 39.7 584.6 39.8 584.5 39.8C584.4 39.9 584.3 39.9 584.2 39.9C584.1 39.9 584 39.9 583.9 39.8C583.8 39.7 583.7 39.6 583.7 39.5C583.7 39.4 583.7 39.3 583.8 39.2C583.9 39.1 583.9 39 584 39C584 39 584.1 39 584.2 39Z" fill="#0F0F0F"/>
<path d="M584.7 42.1C584.8 42.2 584.8 42.3 584.8 42.4C584.8 42.5 584.8 42.6 584.7 42.7C584.7 42.8 584.6 42.8 584.5 42.9C584.4 43 584.3 42.9 584.2 42.9C584.1 42.9 584 42.8 584 42.8C583.9 42.7 583.9 42.6 583.9 42.6C583.9 42.5 583.9 42.4 583.9 42.3C583.9 42.2 584 42.1 584.1 42.1C584.2 42.1 584.3 42 584.4 42C584.4 41.9 584.6 42 584.7 42.1Z" fill="#0F0F0F"/>
<path d="M568.3 72.4C568.3 72.5 568.2 72.6 568.1 72.7C568 72.7 567.9 72.8 567.8 72.8C567.7 72.8 567.6 72.8 567.6 72.7C567.5 72.7 567.5 72.6 567.4 72.5C567.3 72.4 567.3 72.3 567.3 72.1C567.3 72 567.4 71.9 567.5 71.8C567.5 71.8 567.6 71.7 567.7 71.7C567.8 71.7 567.8 71.7 567.9 71.7C568 71.7 568 71.7 568.1 71.8C568.2 71.8 568.2 71.9 568.2 71.9C568.3 72.1 568.3 72.3 568.3 72.4Z" fill="white"/>
<path d="M570.7 70.7C570.7 70.8 570.7 70.8 570.6 70.9C570.6 71 570.5 71 570.5 71C570.4 71.1 570.3 71.1 570.2 71.1C570.1 71.1 570 71.1 570 71C569.9 71 569.9 70.9 569.8 70.9C569.7 70.8 569.7 70.7 569.7 70.5C569.7 70.4 569.8 70.3 569.9 70.2C570 70.2 570 70.1 570.1 70.1C570.2 70.1 570.2 70.1 570.3 70.1C570.4 70.1 570.4 70.1 570.5 70.2C570.6 70.2 570.6 70.3 570.6 70.3C570.6 70.3 570.7 70.4 570.7 70.5C570.7 70.5 570.7 70.6 570.7 70.7Z" fill="white"/>
<path d="M573 68.7C573 68.8 572.9 68.9 572.8 69C572.7 69.1 572.6 69.1 572.5 69.1C572.4 69.1 572.4 69.1 572.3 69C572.2 69 572.2 68.9 572.1 68.9C572 68.8 572 68.7 572 68.6C572 68.5 572.1 68.4 572.2 68.3C572.3 68.2 572.4 68.2 572.6 68.2C572.7 68.2 572.8 68.3 572.9 68.4C573 68.5 573 68.6 573 68.7Z" fill="white"/>
<path d="M584.6 45.4C584.6 45.5 584.5 45.6 584.4 45.7C584.3 45.8 584.2 45.8 584.1 45.8H584C583.9 45.8 583.9 45.8 583.8 45.8C583.7 45.8 583.7 45.7 583.7 45.7C583.7 45.6 583.6 45.6 583.6 45.5C583.6 45.4 583.6 45.4 583.6 45.3C583.6 45.2 583.6 45.2 583.6 45.1C583.6 45 583.7 45 583.7 45C583.8 45 583.8 44.9 583.9 44.9C584 44.9 584 44.9 584.1 44.9C584.2 44.9 584.2 44.9 584.3 44.9C584.4 44.9 584.4 45 584.5 45C584.5 45 584.6 45.1 584.6 45.2C584.6 45.3 584.6 45.4 584.6 45.4Z" fill="white"/>
<path d="M580.4 59.5C580.4 59.6 580.4 59.6 580.3 59.7C580.3 59.8 580.2 59.8 580.2 59.9C580.2 59.9 580.1 60 580 60C579.9 60 579.9 60 579.8 60C579.7 60 579.7 60 579.6 59.9C579.5 59.9 579.5 59.8 579.4 59.8C579.4 59.7 579.3 59.7 579.3 59.6C579.3 59.5 579.3 59.5 579.3 59.4C579.3 59.3 579.3 59.3 579.4 59.2C579.4 59.1 579.5 59.1 579.5 59.1C579.6 59.1 579.6 59 579.7 59C579.8 59 579.8 59 579.9 59C580 59 580 59 580.1 59.1C580.2 59.1 580.2 59.2 580.3 59.2C580.3 59.2 580.4 59.3 580.4 59.4C580.4 59.5 580.4 59.5 580.4 59.5Z" fill="white"/>
<path d="M581.7 56.9C581.7 57 581.6 57.1 581.5 57.2C581.4 57.3 581.3 57.3 581.2 57.3C581.1 57.3 581.1 57.3 581 57.3C580.9 57.2 580.8 57.1 580.7 57C580.7 56.9 580.7 56.8 580.7 56.6C580.8 56.5 580.9 56.4 581 56.3C581.1 56.3 581.3 56.3 581.4 56.3C581.5 56.3 581.6 56.4 581.6 56.5C581.7 56.7 581.7 56.8 581.7 56.9Z" fill="white"/>
<path d="M583.7 51.3C583.7 51.4 583.6 51.5 583.5 51.6C583.4 51.7 583.3 51.7 583.2 51.7H583.1C583 51.7 583 51.6 582.9 51.6C582.8 51.6 582.8 51.5 582.8 51.4C582.8 51.4 582.7 51.3 582.7 51.2C582.7 51.1 582.7 51.1 582.7 51C582.7 50.9 582.8 50.9 582.8 50.8L582.9 50.7C583 50.7 583 50.7 583.1 50.6C583.2 50.6 583.2 50.6 583.3 50.6C583.4 50.6 583.5 50.7 583.6 50.8C583.6 51.1 583.7 51.2 583.7 51.3Z" fill="white"/>
<path d="M578.8 61.9C578.8 62 578.8 62.1 578.7 62.3C578.7 62.4 578.6 62.4 578.5 62.5C578.4 62.5 578.4 62.6 578.3 62.6C578.2 62.6 578.1 62.6 578 62.5L577.9 62.4C577.9 62.3 577.8 62.3 577.8 62.2C577.8 62.1 577.8 62.1 577.8 62C577.8 61.9 577.8 61.9 577.9 61.8C577.9 61.7 578 61.7 578 61.7C578.1 61.7 578.1 61.6 578.2 61.6C578.3 61.6 578.3 61.6 578.4 61.6C578.5 61.6 578.5 61.6 578.6 61.7C578.7 61.7 578.8 61.8 578.8 61.9Z" fill="white"/>
<path d="M582.8 54.2C582.8 54.3 582.7 54.4 582.6 54.5C582.5 54.6 582.4 54.6 582.3 54.6H582.2C582.1 54.6 582.1 54.5 582 54.5C581.9 54.5 581.9 54.4 581.9 54.3C581.9 54.2 581.8 54.2 581.8 54.1C581.8 54 581.8 54 581.8 53.9C581.8 53.8 581.9 53.8 581.9 53.7C582 53.7 582 53.6 582.1 53.6C582.2 53.6 582.2 53.6 582.3 53.6C582.4 53.6 582.4 53.6 582.5 53.6C582.6 53.6 582.7 53.7 582.8 53.8C582.8 53.9 582.8 54 582.8 54.2Z" fill="white"/>
<path d="M584.3 48.4C584.3 48.5 584.2 48.6 584.1 48.7C584 48.8 583.9 48.8 583.8 48.8H583.7C583.6 48.8 583.5 48.7 583.4 48.6C583.3 48.5 583.3 48.4 583.3 48.3C583.3 48.2 583.4 48.1 583.5 48C583.6 47.9 583.7 47.9 583.8 47.9C583.9 47.9 584 48 584.1 48.1C584.3 48.2 584.3 48.3 584.3 48.4Z" fill="white"/>
<path d="M577.1 64.3C577.1 64.4 577.1 64.6 577 64.7C577 64.7 576.9 64.8 576.8 64.8C576.7 64.8 576.7 64.8 576.6 64.8C576.5 64.8 576.4 64.8 576.3 64.7C576.2 64.6 576.1 64.5 576.1 64.4C576.1 64.3 576.1 64.1 576.2 64C576.2 64 576.3 63.9 576.4 63.9C576.5 63.9 576.5 63.9 576.6 63.8C576.7 63.8 576.7 63.8 576.8 63.8C576.9 63.8 576.9 63.8 577 63.9C577 64.1 577 64.2 577.1 64.3Z" fill="white"/>
<path d="M575.1 66.6C575.1 66.7 575.1 66.7 575.1 66.8C575.1 66.9 575.1 66.9 575 67C574.9 67.1 574.8 67.1 574.6 67.1C574.5 67.1 574.4 67.1 574.3 67C574.3 67 574.2 66.9 574.2 66.8C574.2 66.7 574.2 66.7 574.2 66.6C574.2 66.5 574.2 66.5 574.2 66.4C574.2 66.3 574.3 66.3 574.3 66.2L574.4 66.1C574.5 66.1 574.5 66.1 574.6 66.1C574.7 66.1 574.7 66.1 574.8 66.1C574.9 66.1 574.9 66.2 575 66.2C575 66.2 575.1 66.3 575.1 66.4C575.1 66.5 575.1 66.6 575.1 66.6Z" fill="white"/>
<path d="M552.4 7.19999C552.4 7.29999 552.3 7.39999 552.3 7.49999C552.2 7.59999 552.1 7.59999 552 7.59999C551.9 7.59999 551.8 7.59999 551.7 7.49999C551.6 7.39999 551.6 7.29999 551.6 7.19999C551.6 7.09999 551.7 6.99999 551.7 6.89999C551.8 6.79999 551.9 6.79999 552 6.79999C552.1 6.79999 552.2 6.89999 552.3 6.89999C552.3 6.99999 552.4 7.09999 552.4 7.19999Z" fill="white"/>
<path d="M525.6 16.5C525.6 16.6 525.5 16.7 525.5 16.8C525.4 16.9 525.3 16.9 525.2 16.9C525.1 16.9 525 16.9 524.9 16.8C524.8 16.7 524.8 16.7 524.7 16.6C524.7 16.5 524.6 16.4 524.7 16.3C524.7 16.2 524.8 16.1 524.8 16.1C524.9 16 525 16 525.1 16C525.2 16 525.3 16.1 525.4 16.2C525.5 16.2 525.6 16.3 525.6 16.5Z" fill="white"/>
<path d="M538 9C538 9.1 538 9.1 538 9.2C538 9.2 537.9 9.3 537.9 9.4C537.9 9.4 537.8 9.5 537.7 9.5C537.6 9.5 537.6 9.5 537.5 9.5C537.4 9.5 537.3 9.5 537.2 9.4C537.1 9.3 537.1 9.3 537 9.2C537 9.1 537 9.1 537 9C537 8.9 537 8.9 537 8.8C537 8.7 537.1 8.7 537.1 8.6C537.2 8.6 537.2 8.5 537.3 8.5C537.4 8.5 537.5 8.5 537.7 8.5C537.8 8.5 537.9 8.6 537.9 8.8C538 8.9 538 9 538 9Z" fill="white"/>
<path d="M546.6 7.19995C546.6 7.29995 546.6 7.49995 546.5 7.59995C546.4 7.69995 546.3 7.69995 546.2 7.69995H546.1C546 7.69995 545.9 7.59995 545.8 7.59995C545.7 7.49995 545.7 7.39995 545.7 7.19995C545.7 7.09995 545.8 6.99995 545.9 6.89995C546 6.79995 546.1 6.69995 546.2 6.69995C546.3 6.69995 546.4 6.79995 546.5 6.89995C546.5 6.99995 546.6 7.09995 546.6 7.19995Z" fill="white"/>
<path d="M543.7 7.49995C543.7 7.59995 543.7 7.59995 543.7 7.69995C543.7 7.79995 543.7 7.79995 543.6 7.89995C543.6 7.99995 543.5 7.99995 543.5 7.99995C543.4 7.99995 543.4 8.09995 543.3 8.09995H543.2C543.1 8.09995 543 8.09995 542.9 7.99995C542.8 7.89995 542.8 7.79995 542.7 7.69995C542.7 7.59995 542.7 7.49995 542.8 7.39995C542.9 7.29995 543 7.19995 543.1 7.19995C543.2 7.19995 543.4 7.19995 543.5 7.29995C543.6 7.29995 543.6 7.39995 543.7 7.49995Z" fill="white"/>
<path d="M540.7 8.39995C540.6 8.49995 540.5 8.59995 540.4 8.59995H540.3C540.2 8.59995 540.1 8.59995 540 8.49995C539.9 8.39995 539.8 8.29995 539.8 8.19995C539.8 8.09995 539.8 7.99995 539.9 7.89995C540 7.79995 540.1 7.69995 540.2 7.69995C540.3 7.69995 540.4 7.69995 540.5 7.79995C540.6 7.89995 540.7 7.99995 540.7 8.09995C540.8 8.19995 540.8 8.29995 540.7 8.39995Z" fill="white"/>
<path d="M535.3 10.3C535.2 10.4 535.2 10.5 535 10.6C534.9 10.6 534.9 10.6 534.8 10.6C534.7 10.6 534.6 10.6 534.5 10.5C534.4 10.5 534.3 10.4 534.3 10.3C534.2 10.2 534.2 9.99999 534.3 9.89999C534.4 9.79999 534.4 9.69999 534.6 9.59999C534.8 9.49999 534.8 9.59999 535 9.59999C535.1 9.59999 535.2 9.79999 535.3 9.89999C535.3 9.99999 535.3 10.1 535.3 10.3Z" fill="white"/>
<path d="M527.8 14.6C527.8 14.7 527.8 14.7 527.7 14.8L527.6 14.9C527.5 15 527.4 15 527.3 15C527.2 15 527.1 15 527 14.9C526.9 14.8 526.9 14.8 526.8 14.7C526.8 14.6 526.8 14.5 526.8 14.4C526.8 14.3 526.9 14.2 527 14.2C527 14.2 527.1 14.1 527.2 14.1C527.3 14.1 527.3 14.1 527.4 14.1C527.5 14.1 527.5 14.1 527.6 14.2C527.7 14.2 527.7 14.3 527.8 14.3C527.8 14.3 527.9 14.4 527.9 14.5C527.8 14.5 527.8 14.6 527.8 14.6Z" fill="white"/>
<path d="M514.7 36.6C514.7 36.7 514.6 36.8 514.5 36.9C514.4 37 514.3 37 514.2 37H514.1C514 37 513.9 36.9 513.8 36.8C513.7 36.7 513.7 36.6 513.7 36.4C513.7 36.3 513.8 36.2 513.9 36.1C514 36 514.1 36 514.3 36C514.4 36 514.5 36.1 514.6 36.2C514.7 36.4 514.7 36.5 514.7 36.6Z" fill="white"/>
<path d="M515.3 33.7C515.3 33.8 515.3 33.8 515.3 33.9C515.3 34 515.2 34.1 515.1 34.2C515 34.3 514.9 34.3 514.8 34.3H514.7C514.6 34.3 514.5 34.2 514.4 34.1C514.3 34 514.3 33.9 514.3 33.7C514.3 33.6 514.3 33.6 514.4 33.5C514.4 33.5 514.5 33.4 514.6 33.4C514.6 33.4 514.7 33.3 514.8 33.3C514.9 33.3 514.9 33.3 515 33.3C515.1 33.3 515.1 33.3 515.2 33.4C515.3 33.4 515.3 33.5 515.3 33.5C515.2 33.5 515.2 33.6 515.3 33.7Z" fill="white"/>
<path d="M532.7 11.5C532.7 11.6 532.6 11.7 532.5 11.8C532.4 11.9 532.4 11.9 532.3 11.9C532.2 11.9 532.1 11.9 532 11.8C531.9 11.8 531.9 11.7 531.8 11.6C531.7 11.5 531.7 11.4 531.8 11.2C531.8 11.1 531.9 11 532 10.9C532.1 10.8 532.2 10.8 532.4 10.9C532.5 10.9 532.6 11 532.7 11.1C532.7 11.2 532.7 11.4 532.7 11.5Z" fill="white"/>
<path d="M530.2 12.8C530.2 12.9 530.2 12.9 530.2 13C530.2 13.1 530.2 13.1 530.1 13.2L530 13.3C529.9 13.4 529.8 13.4 529.7 13.4C529.6 13.4 529.5 13.4 529.5 13.3C529.4 13.3 529.4 13.2 529.3 13.2C529.2 13.1 529.2 13 529.2 12.8C529.2 12.7 529.3 12.6 529.4 12.5C529.4 12.5 529.5 12.4 529.6 12.4C529.7 12.4 529.7 12.4 529.8 12.4C529.9 12.4 529.9 12.4 530 12.5C530.1 12.5 530.1 12.6 530.1 12.6C530.1 12.6 530.1 12.7 530.2 12.8Z" fill="white"/>
<path d="M523.5 18.5C523.5 18.6 523.5 18.7 523.4 18.7C523.4 18.8 523.3 18.8 523.2 18.9C523.1 18.9 523 19 523 19C522.9 19 522.8 19 522.7 18.9C522.6 18.8 522.6 18.7 522.6 18.6C522.6 18.5 522.6 18.3 522.7 18.2C522.7 18.1 522.8 18.1 522.9 18.1C523 18.1 523.1 18.1 523.1 18.1C523.2 18.1 523.3 18.1 523.3 18.2C523.4 18.2 523.4 18.3 523.5 18.4V18.5Z" fill="white"/>
<path d="M582.8 31.2C582.7 31.3 582.7 31.4 582.5 31.4C582.4 31.4 582.4 31.4 582.3 31.4C582.2 31.4 582.1 31.4 582 31.3C581.9 31.2 581.8 31.1 581.8 31C581.8 30.9 581.8 30.8 581.9 30.7C582 30.6 582.1 30.5 582.2 30.5C582.3 30.5 582.4 30.5 582.5 30.6C582.6 30.7 582.7 30.8 582.7 30.9C582.7 31 582.9 31.1 582.8 31.2Z" fill="white"/>
<path d="M571.2 14.5C571.2 14.6 571.2 14.7 571.1 14.9C571.1 15 571 15 570.9 15C570.8 15 570.8 15 570.7 15C570.6 15 570.5 15 570.4 14.9C570.3 14.9 570.3 14.8 570.3 14.7C570.3 14.7 570.2 14.6 570.2 14.5C570.2 14.4 570.2 14.4 570.2 14.3C570.2 14.2 570.3 14.2 570.3 14.1L570.4 14C570.5 14 570.5 13.9 570.6 13.9C570.7 13.9 570.7 13.9 570.8 13.9C570.9 13.9 570.9 13.9 571 14C571.1 14.3 571.1 14.4 571.2 14.5Z" fill="white"/>
<path d="M583.7 33.7999C583.7 33.8999 583.6 33.9999 583.6 34.0999C583.5 34.1999 583.5 34.2 583.4 34.2H583.3C583.2 34.2 583.1 34.1999 583 34.0999C582.9 33.9999 582.8 33.8999 582.8 33.7999C582.8 33.6999 582.8 33.6 582.8 33.5C582.8 33.4 582.9 33.2999 583 33.2999C583.1 33.1999 583.2 33.2 583.3 33.2C583.4 33.2 583.5 33.1999 583.6 33.2999C583.7 33.2999 583.8 33.4 583.8 33.5C583.7 33.6 583.7 33.6999 583.7 33.7999Z" fill="white"/>
<path d="M584.3 36.5C584.3 36.6 584.3 36.6 584.3 36.7C584.3 36.8 584.3 36.8 584.2 36.9L584.1 37C584 37 584 37 583.9 37.1H583.8C583.7 37.1 583.6 37.1 583.5 37C583.4 36.9 583.4 36.8 583.3 36.7C583.3 36.6 583.3 36.6 583.3 36.5C583.3 36.4 583.3 36.4 583.4 36.3L583.5 36.2C583.6 36.2 583.6 36.2 583.7 36.1C583.8 36.1 584 36.1 584.1 36.2C584.2 36.3 584.3 36.4 584.3 36.5Z" fill="white"/>
<path d="M584.6 39.5999C584.6 39.6999 584.5 39.7999 584.4 39.7999C584.3 39.8999 584.2 39.9 584.1 39.9C584 39.9 583.9 39.8999 583.8 39.7999C583.7 39.6999 583.6 39.5999 583.6 39.4999C583.6 39.3999 583.6 39.3 583.7 39.2C583.8 39.1 583.8 38.9999 583.9 38.9999C584 38.9999 584.1 38.8999 584.2 38.9999C584.3 38.9999 584.4 38.9999 584.5 39.0999C584.6 39.1999 584.6 39.1999 584.7 39.2999C584.7 39.4999 584.6 39.5999 584.6 39.5999Z" fill="white"/>
<path d="M558.1 8.19998C558.1 8.29998 558 8.39998 557.9 8.49998C557.8 8.59998 557.7 8.59998 557.6 8.59998H557.5C557.4 8.59998 557.3 8.49998 557.2 8.39998C557.1 8.29998 557.1 8.19998 557.1 7.99998C557.1 7.89998 557.2 7.79998 557.3 7.69998C557.4 7.59998 557.5 7.59998 557.7 7.59998C557.8 7.59998 557.9 7.69998 558 7.79998C558.1 7.99998 558.2 8.09998 558.1 8.19998Z" fill="white"/>
<path d="M555.3 7.6C555.3 7.7 555.2 7.8 555.1 7.9C555 8 554.9 8 554.7 8C554.7 8 554.7 8 554.6 8C554.5 8 554.4 7.9 554.3 7.8C554.2 7.7 554.2 7.6 554.2 7.4C554.2 7.3 554.3 7.2 554.4 7.1C554.5 7 554.6 7 554.7 7C554.8 7 554.9 7.1 555 7.2C555.3 7.4 555.3 7.5 555.3 7.6Z" fill="white"/>
<path d="M560.9 9.2C560.9 9.3 560.8 9.4 560.7 9.5C560.6 9.6 560.5 9.6 560.3 9.5C560.2 9.5 560.1 9.4 560 9.3C560 9.1 560 9 560 8.9C560 8.8 560.1 8.7 560.2 8.6C560.3 8.6 560.3 8.6 560.4 8.5C560.5 8.5 560.5 8.5 560.6 8.5C560.7 8.5 560.8 8.6 560.9 8.7C560.9 8.9 560.9 9.1 560.9 9.2Z" fill="white"/>
<path d="M566.3 11.4C566.3 11.5 566.3 11.5 566.2 11.6C566.2 11.7 566.1 11.7 566 11.8C565.9 11.9 565.8 11.9 565.8 11.9C565.7 11.9 565.6 11.9 565.6 11.8C565.5 11.7 565.4 11.6 565.4 11.5C565.4 11.4 565.4 11.2 565.4 11.1C565.5 11 565.6 10.9 565.7 10.9C565.8 10.9 565.9 10.9 566.1 10.9C566.2 10.9 566.2 11 566.3 11C566.3 11 566.4 11.1 566.4 11.2C566.4 11.3 566.3 11.4 566.3 11.4Z" fill="white"/>
<path d="M568.8 12.9C568.8 13 568.8 13.1 568.7 13.2C568.6 13.3 568.5 13.4 568.4 13.4C568.3 13.4 568.1 13.4 568 13.3C567.9 13.2 567.9 13.2 567.8 13.1C567.8 13 567.8 12.9 567.8 12.8C567.8 12.7 567.9 12.6 567.9 12.6C568 12.5 568.1 12.5 568.1 12.5C568.2 12.5 568.3 12.5 568.4 12.5C568.5 12.5 568.6 12.6 568.6 12.7C568.7 12.7 568.8 12.8 568.8 12.9Z" fill="white"/>
<path d="M563.6 10.3C563.6 10.4 563.5 10.5 563.4 10.5C563.3 10.5 563.2 10.6 563.1 10.6C563 10.6 563 10.6 562.9 10.6C562.8 10.6 562.7 10.5 562.6 10.3C562.6 10.2 562.6 10.1 562.6 9.89997C562.6 9.69997 562.8 9.69998 562.9 9.59998C563 9.59998 563.1 9.59998 563.3 9.59998C563.4 9.69998 563.5 9.69997 563.6 9.89997C563.7 9.99997 563.7 10.2 563.6 10.3Z" fill="white"/>
<path d="M516.1 31C516.1 31.1 516 31.2 515.9 31.3C515.8 31.4 515.7 31.4 515.6 31.4C515.5 31.4 515.5 31.4 515.4 31.4C515.3 31.4 515.2 31.3 515.1 31.2C515 31.1 515 31 515.1 30.8C515.1 30.7 515.1 30.7 515.2 30.6C515.2 30.6 515.3 30.5 515.4 30.5C515.4 30.5 515.5 30.5 515.6 30.5C515.7 30.5 515.7 30.5 515.8 30.5C515.9 30.5 516 30.6 516.1 30.7C516.1 30.8 516.1 30.9 516.1 31Z" fill="white"/>
<path d="M521.6 20.7C521.6 20.8 521.6 21 521.5 21.1C521.5 21.2 521.4 21.2 521.3 21.2C521.2 21.2 521.2 21.2 521.1 21.2C521 21.2 520.9 21.2 520.8 21.1C520.7 21 520.6 20.9 520.6 20.8C520.6 20.7 520.6 20.6 520.7 20.5C520.8 20.4 520.9 20.3 521 20.3C521.1 20.3 521.3 20.3 521.4 20.4C521.5 20.4 521.6 20.5 521.6 20.7Z" fill="white"/>
<path d="M581.8 28.4C581.7 28.5 581.7 28.6 581.5 28.7C581.4 28.7 581.4 28.7 581.3 28.7C581.2 28.7 581.1 28.7 581 28.6C580.9 28.5 580.8 28.4 580.8 28.3C580.8 28.2 580.8 28.1 580.8 28C580.8 27.9 580.9 27.8 581 27.8C581 27.8 581.1 27.8 581.2 27.8C581.3 27.8 581.3 27.8 581.4 27.8C581.5 27.8 581.5 27.9 581.6 27.9C581.6 27.9 581.7 28 581.7 28.1C581.8 28.2 581.8 28.3 581.8 28.4Z" fill="white"/>
<path d="M580.5 25.7C580.5 25.8 580.4 25.9 580.3 26C580.2 26 580.1 26.1 580.1 26.1C580 26.1 579.9 26.1 579.9 26C579.8 26 579.8 25.9 579.7 25.8C579.7 25.7 579.6 25.7 579.6 25.6C579.6 25.5 579.6 25.5 579.6 25.4C579.6 25.3 579.7 25.3 579.7 25.2L579.8 25.1C579.9 25 580 25 580.2 25.1C580.3 25.1 580.3 25.1 580.4 25.2C580.5 25.2 580.5 25.3 580.5 25.3C580.5 25.5 580.5 25.6 580.5 25.7Z" fill="white"/>
<path d="M514.3 39.5C514.3 39.6 514.2 39.7 514.2 39.8C514.1 39.9 514 39.9 513.9 39.9C513.8 39.9 513.7 39.8 513.6 39.7C513.5 39.6 513.5 39.5 513.5 39.4C513.5 39.3 513.6 39.2 513.7 39.1C513.8 39 513.9 39 514 39C514.1 39 514.2 39.1 514.3 39.1C514.3 39.3 514.3 39.4 514.3 39.5Z" fill="white"/>
<path d="M577.3 20.8C577.3 20.9 577.2 21 577.1 21.1C577 21.2 576.9 21.2 576.8 21.2C576.7 21.2 576.6 21.2 576.6 21.2C576.5 21.2 576.5 21.1 576.4 21.1C576.3 21 576.3 20.9 576.3 20.7C576.3 20.6 576.4 20.5 576.5 20.4C576.6 20.3 576.7 20.3 576.9 20.3C577 20.3 577.1 20.4 577.2 20.5C577.3 20.5 577.3 20.7 577.3 20.8Z" fill="white"/>
<path d="M575.4 18.5C575.4 18.6 575.3 18.7 575.3 18.8C575.2 18.9 575.1 18.9 575 18.9C574.9 18.9 574.8 18.9 574.7 18.8C574.6 18.8 574.6 18.7 574.5 18.6C574.5 18.5 574.4 18.4 574.5 18.3C574.5 18.2 574.6 18.1 574.6 18.1C574.7 18 574.8 18 574.9 18C575 18 575.1 18.1 575.2 18.2C575.4 18.3 575.4 18.4 575.4 18.5Z" fill="white"/>
<path d="M518.4 25.7C518.4 25.8 518.4 25.8 518.3 25.9C518.3 26 518.2 26 518.1 26.1C518 26.1 517.9 26.2 517.9 26.2C517.8 26.2 517.7 26.2 517.7 26.1C517.6 26 517.5 25.8999 517.5 25.7999C517.5 25.6999 517.5 25.5 517.5 25.4C517.6 25.3 517.7 25.2 517.8 25.2C517.9 25.2 518.1 25.2 518.2 25.2C518.3 25.2 518.3 25.2999 518.4 25.2999C518.4 25.2999 518.5 25.4 518.5 25.5C518.4 25.5 518.4 25.6 518.4 25.7Z" fill="white"/>
<path d="M579 23C579 23.1 579 23.1 579 23.2C579 23.3 579 23.3 578.9 23.4C578.9 23.5 578.8 23.5 578.8 23.5C578.7 23.5 578.6 23.6 578.5 23.6C578.4 23.6 578.3 23.6 578.3 23.5C578.2 23.5 578.2 23.4 578.1 23.3C578 23.2 578 23.1 578 22.9C578 22.8 578.1 22.7 578.2 22.6C578.2 22.6 578.3 22.5 578.4 22.5C578.5 22.5 578.5 22.5 578.6 22.5C578.7 22.5 578.7 22.5 578.8 22.6C578.9 22.6 578.9 22.7 578.9 22.7C579 22.9 579 23 579 23Z" fill="white"/>
<path d="M519.9 23.2C519.9 23.3 519.9 23.3 519.8 23.4C519.8 23.5 519.7 23.5 519.6 23.6C519.5 23.6 519.4 23.7 519.4 23.7C519.3 23.7 519.2 23.7 519.1 23.6C519 23.6 519 23.5 519 23.5C519 23.5 518.9 23.3999 518.9 23.2999C518.9 23.1999 518.9 23.2 518.9 23.1C518.9 23 518.9 23 519 22.9C519 22.8 519.1 22.7999 519.1 22.7999C519.1 22.7999 519.2 22.7 519.3 22.7C519.4 22.7 519.4 22.7 519.5 22.7C519.6 22.7 519.6 22.6999 519.7 22.7999C519.8 22.7999 519.8 22.9 519.8 22.9C519.8 22.9 519.9 23 519.9 23.1C519.9 23.1 519.9 23.1 519.9 23.2Z" fill="white"/>
<path d="M517.1 28.4C517.1 28.5 517 28.6 516.9 28.6C516.8 28.7 516.7 28.7 516.6 28.7C516.5 28.7 516.5 28.7 516.4 28.7C516.3 28.7 516.2 28.6 516.1 28.4C516.1 28.3 516.1 28.1 516.1 28C516.2 27.9 516.3 27.8 516.4 27.7C516.5 27.6 516.7 27.7 516.8 27.7C516.9 27.7 517 27.8 517.1 28C517.2 28.2 517.2 28.3 517.1 28.4Z" fill="white"/>
<path d="M573.4 16.3C573.4 16.4 573.4 16.5 573.4 16.6C573.4 16.7 573.3 16.8 573.2 16.8C573.1 16.8 573 16.9 572.9 16.9C572.8 16.9 572.7 16.9 572.6 16.8C572.6 16.8 572.5 16.7 572.5 16.6C572.5 16.5 572.5 16.5 572.5 16.4C572.5 16.3 572.5 16.3 572.5 16.2C572.5 16.1 572.6 16.1 572.6 16C572.6 16 572.7 15.9 572.8 15.9C572.9 15.9 572.9 15.9 573 15.9C573.1 15.9 573.1 15.9 573.2 15.9C573.3 15.9 573.3 15.9 573.4 16C573.3 16.2 573.3 16.2 573.4 16.3Z" fill="white"/>
<path d="M516 53.8C516 53.9 516 53.9 516 54C516 54.1 515.9 54.1 515.9 54.1C515.8 54.1 515.8 54.2 515.7 54.2C515.7 54.2 515.6 54.2 515.5 54.2C515.4 54.2 515.3 54.2 515.2 54.1C515.1 54 515 53.9 515 53.8C515 53.7 515 53.6 515.1 53.5C515.2 53.4 515.3 53.3 515.4 53.3C515.5 53.3 515.5 53.3 515.6 53.3C515.7 53.3 515.7 53.3 515.8 53.3C515.9 53.3 515.9 53.4 516 53.4C516 53.4 516.1 53.5 516.1 53.6C516.1 53.7 516 53.7 516 53.8Z" fill="white"/>
<path d="M515.2 51C515.2 51.1 515.2 51.1 515.1 51.2C515.1 51.3 515 51.3 515 51.3C514.9 51.3 514.9 51.4 514.8 51.4H514.7C514.6 51.4 514.5 51.4 514.4 51.3C514.3 51.2 514.3 51.1 514.2 51C514.2 50.9 514.2 50.7 514.3 50.6C514.4 50.5 514.5 50.4 514.6 50.4C514.7 50.4 514.7 50.4 514.8 50.4C514.9 50.4 514.9 50.4 515 50.5C515.1 50.5 515.1 50.6 515.1 50.6C515.1 50.6 515.2 50.7 515.2 50.8C515.2 50.9 515.2 51 515.2 51Z" fill="white"/>
<path d="M523.3 66.1C523.3 66.2 523.3 66.2 523.3 66.3C523.3 66.4 523.2 66.4 523.2 66.5C523.1 66.6 523 66.6 522.9 66.6C522.8 66.6 522.7 66.6 522.6 66.5C522.5 66.4 522.4 66.4 522.4 66.3C522.4 66.2 522.4 66.1 522.4 66C522.4 65.9 522.5 65.8 522.6 65.8C522.7 65.8 522.7 65.7 522.8 65.7C522.9 65.7 522.9 65.7 523 65.7C523.1 65.7 523.1 65.7 523.2 65.7C523.3 65.7 523.3 65.8 523.4 65.8C523.4 65.8 523.5 65.9 523.5 66C523.3 66 523.3 66 523.3 66.1Z" fill="white"/>
<path d="M514.3 45.4C514.3 45.5 514.2 45.6 514.1 45.6C514 45.7 513.9 45.7 513.8 45.7C513.7 45.7 513.6 45.6 513.5 45.6C513.4 45.5 513.4 45.4 513.3 45.3C513.3 45.2 513.3 45.1 513.4 45C513.4 44.9 513.5 44.8 513.6 44.8C513.7 44.8 513.8 44.7 513.9 44.8C514 44.8 514.1 44.8 514.2 44.9C514.3 45 514.3 45.1 514.4 45.1C514.3 45.2 514.3 45.3 514.3 45.4Z" fill="white"/>
<path d="M514.6 48.1C514.6 48.2 514.6 48.4 514.5 48.5C514.4 48.6 514.3 48.7 514.2 48.7H514.1C514 48.7 513.9 48.7 513.8 48.6C513.7 48.5 513.7 48.4 513.7 48.3C513.7 48.2 513.7 48.1 513.8 48C513.9 47.9 514 47.8 514.1 47.8C514.2 47.8 514.2 47.8 514.3 47.8C514.4 47.8 514.4 47.8 514.5 47.9C514.6 47.9 514.6 48 514.6 48C514.6 47.9 514.6 48 514.6 48.1Z" fill="white"/>
<path d="M521.4 63.9C521.4 64 521.4 64 521.3 64.1C521.3 64.2 521.2 64.2 521.2 64.2C521.1 64.3 521 64.3 520.9 64.3C520.8 64.3 520.8 64.3 520.7 64.2C520.6 64.2 520.6 64.1 520.5 64.1C520.4 64 520.4 63.9 520.4 63.7C520.4 63.5 520.5 63.5 520.6 63.4C520.6 63.4 520.7 63.3 520.8 63.3C520.9 63.3 520.9 63.3 521 63.3C521.1 63.3 521.1 63.3 521.2 63.4C521.3 63.4 521.3 63.5 521.4 63.5C521.5 63.5 521.5 63.6 521.5 63.7C521.4 63.8 521.4 63.8 521.4 63.9Z" fill="white"/>
<path d="M517 56.6C516.9 56.7 516.9 56.8 516.7 56.9C516.6 56.9 516.6 56.9 516.5 56.9C516.4 56.9 516.3 56.9 516.2 56.8C516.1 56.8 516.1 56.7 516 56.6C516 56.5 516 56.5 516 56.4C516 56.3 516 56.3 516 56.2C516 56.1 516.1 56.1 516.1 56C516.1 56 516.2 55.9 516.3 55.9C516.3 55.9 516.4 55.9 516.5 55.9C516.6 55.9 516.6 55.9 516.7 55.9C516.8 55.9 516.8 56 516.9 56L517 56.1C517.1 56.3 517.1 56.5 517 56.6Z" fill="white"/>
<path d="M519.8 61.4C519.8 61.5 519.8 61.5 519.8 61.6C519.8 61.7 519.8 61.7 519.7 61.8L519.6 61.9C519.5 62 519.4 62 519.3 62C519.2 62 519.1 62 519 61.9C518.9 61.8 518.9 61.7 518.8 61.7C518.8 61.6 518.8 61.5 518.8 61.4C518.8 61.3 518.9 61.2 519 61.2C519.1 61.2 519.1 61.1 519.2 61.1C519.3 61.1 519.3 61.1 519.4 61.1C519.5 61.1 519.5 61.1 519.6 61.2C519.7 61.2 519.7 61.3 519.7 61.3L519.8 61.4Z" fill="white"/>
<path d="M518.3 59.1C518.3 59.2 518.2 59.3 518.1 59.4C518 59.4 518 59.5 517.9 59.5C517.8 59.5 517.7 59.5 517.7 59.4C517.6 59.4 517.6 59.3 517.5 59.2C517.4 59.1 517.4 59 517.5 58.8C517.5 58.7 517.6 58.6 517.7 58.5C517.8 58.4 517.9 58.4 518.1 58.5C518.2 58.5 518.3 58.6 518.4 58.7C518.3 58.9 518.3 59 518.3 59.1Z" fill="white"/>
<path d="M584.8 42.4C584.8 42.5 584.8 42.6 584.7 42.7C584.7 42.8 584.6 42.8 584.5 42.9C584.4 43 584.3 42.9 584.2 42.9C584.1 42.9 584 42.8 584 42.8C583.9 42.7 583.9 42.6 583.9 42.6C583.9 42.5 583.9 42.4 583.9 42.3C583.9 42.2 584 42.1 584.1 42.1C584.2 42.1 584.3 42 584.4 42C584.5 42 584.7 42 584.8 42.1C584.7 42.2 584.8 42.3 584.8 42.4Z" fill="white"/>
<path d="M565.7 73.8C565.7 74.1 565.5 74.3 565.2 74.3C564.9 74.3 564.7 74.1 564.7 73.8C564.7 73.5 564.9 73.3 565.2 73.3C565.5 73.3 565.7 73.5 565.7 73.8Z" fill="white"/>
<path d="M514.2 42.3C514.2 42.4 514.2 42.5 514.2 42.6C514.2 42.7 514.1 42.8 514 42.8C513.9 42.8 513.8 42.9 513.7 42.9C513.6 42.9 513.4 42.9 513.4 42.8C513.3 42.7 513.2 42.6 513.2 42.4C513.2 42.3 513.2 42.2 513.3 42.1C513.3 42 513.4 42 513.5 41.9C513.6 41.9 513.7 41.8 513.8 41.9C513.9 41.9 514 42 514.1 42C514.1 42.1 514.2 42.2 514.2 42.3Z" fill="white"/>
<path d="M549.5 6.99998C549.5 7.09998 549.5 7.19998 549.5 7.29998C549.5 7.39998 549.4 7.49998 549.3 7.49998C549.2 7.59998 549.1 7.59998 549 7.59998C548.9 7.59998 548.7 7.49998 548.7 7.39998C548.6 7.29998 548.5 7.19998 548.5 7.09998C548.5 6.99998 548.5 6.89998 548.6 6.79998C548.7 6.69998 548.7 6.69998 548.8 6.59998C548.9 6.59998 549 6.59998 549.1 6.59998C549.2 6.59998 549.3 6.69998 549.3 6.69998C549.4 6.79998 549.5 6.89998 549.5 6.99998Z" fill="white"/>
<path d="M525.3 68.2C525.3 68.3 525.2 68.4 525.1 68.5C525 68.6 524.9 68.6 524.8 68.6C524.7 68.6 524.6 68.6 524.5 68.5C524.4 68.5 524.4 68.4 524.3 68.3C524.3 68.2 524.3 68.1 524.3 68C524.3 67.9 524.4 67.8 524.5 67.8C524.6 67.7 524.7 67.7 524.8 67.7C524.9 67.7 525 67.8 525.1 67.9C525.3 67.9 525.3 68 525.3 68.2Z" fill="white"/>
<path d="M551.7 77.7C551.7 77.8 551.7 77.9 551.6 78C551.5 78.1 551.4 78.2 551.3 78.2C551.2 78.2 551.1 78.2 551 78.1C550.9 78 550.8 77.9 550.8 77.8C550.8 77.7 550.8 77.6 550.9 77.5C551 77.4 551.1 77.3 551.2 77.3C551.3 77.3 551.4 77.3 551.5 77.4C551.6 77.5 551.7 77.6 551.7 77.7Z" fill="white"/>
<path d="M557.5 76.9C557.5 77 557.5 77.2 557.4 77.3C557.3 77.4 557.2 77.5 557.1 77.5C557 77.5 556.8 77.5 556.7 77.4C556.6 77.3 556.5 77.2 556.5 77.1C556.5 77 556.5 76.8 556.6 76.7C556.7 76.6 556.8 76.5 556.9 76.5C557 76.5 557.2 76.5 557.3 76.6C557.4 76.6 557.5 76.7 557.5 76.9Z" fill="white"/>
<path d="M560.2 76.4C560.1 76.5 560 76.6 559.9 76.6C559.8 76.6 559.7 76.6 559.5 76.6C559.4 76.6 559.3 76.4 559.3 76.3C559.3 76.2 559.3 76.2 559.3 76.1C559.3 76 559.3 76 559.4 75.9C559.5 75.8 559.5 75.8 559.5 75.8C559.6 75.8 559.6 75.7 559.7 75.7H559.8C559.9 75.7 560 75.7 560.1 75.8C560.2 75.9 560.3 76 560.3 76.1C560.3 76.1 560.3 76.3 560.2 76.4Z" fill="white"/>
<path d="M563 75.3C562.9 75.4 562.8 75.5 562.7 75.5C562.6 75.5 562.5 75.5 562.4 75.5C562.3 75.4 562.2 75.4 562.2 75.2C562.2 75.1 562.2 75 562.2 74.8C562.3 74.7 562.3 74.6 562.4 74.6H562.5C562.6 74.6 562.7 74.6 562.8 74.7C562.9 74.8 563 74.9 563 75C563 75.1 563 75.2 563 75.3Z" fill="white"/>
<path d="M532 73.6C532 73.7 531.9 73.7 531.9 73.7C531.8 73.7 531.8 73.8 531.7 73.8C531.6 73.8 531.6 73.8 531.5 73.8C531.4 73.8 531.4 73.8 531.3 73.7C531.2 73.6 531.1 73.5 531.1 73.4C531.1 73.3 531.1 73.1 531.2 73C531.2 72.9 531.3 72.9 531.3 72.8C531.4 72.8 531.4 72.7 531.5 72.7C531.6 72.7 531.7 72.7 531.8 72.8C531.9 72.9 532 73 532 73.1C532.1 73.3 532.1 73.5 532 73.6Z" fill="white"/>
<path d="M545.9 77.7C545.9 77.8 545.8 77.9 545.7 78C545.6 78.1 545.5 78.1 545.4 78.1C545.3 78.1 545.2 78 545.1 78C545 77.9 545 77.8 545 77.7C545 77.6 545 77.5 545.1 77.4C545.2 77.3 545.3 77.2 545.4 77.2H545.5C545.6 77.2 545.7 77.3 545.8 77.4C545.8 77.5 545.9 77.6 545.9 77.7Z" fill="white"/>
<path d="M548.8 77.9C548.8 78 548.7 78.1 548.6 78.2C548.5 78.3 548.4 78.3 548.3 78.3C548.2 78.3 548 78.3 547.9 78.2C547.8 78.1 547.8 78 547.8 77.9C547.8 77.8 547.8 77.7 547.9 77.5C548 77.4 548.1 77.3 548.2 77.3H548.3C548.4 77.3 548.5 77.4 548.6 77.5C548.7 77.6 548.8 77.8 548.8 77.9Z" fill="white"/>
<path d="M543 77.2C543 77.3 543 77.3 543 77.4C543 77.5 542.9 77.6 542.9 77.6C542.8 77.7 542.8 77.7 542.7 77.7C542.6 77.7 542.5 77.7 542.4 77.7C542.3 77.7 542.2 77.6 542.2 77.6C542.1 77.5 542.1 77.4 542.1 77.4C542.1 77.3 542.1 77.2 542.1 77.1C542.1 77 542.2 76.9 542.2 76.9C542.3 76.9 542.4 76.8 542.4 76.8C542.5 76.8 542.5 76.8 542.6 76.8C542.7 76.8 542.7 76.8 542.8 76.9C542.9 76.9 542.9 77 542.9 77C542.9 77.1 543 77.1 543 77.2Z" fill="white"/>
<path d="M537.3 75.9C537.3 76 537.2 76.1 537 76.2C536.9 76.3 536.8 76.3 536.6 76.2C536.5 76.2 536.5 76.2 536.4 76.1C536.4 76.1 536.3 76 536.3 75.9C536.3 75.9 536.3 75.8 536.3 75.7C536.3 75.6 536.3 75.6 536.3 75.5C536.3 75.4 536.4 75.3 536.5 75.3C536.6 75.2 536.7 75.2 536.7 75.2C536.8 75.2 536.9 75.2 536.9 75.2C537 75.2 537.1 75.3 537.2 75.5C537.4 75.7 537.4 75.8 537.3 75.9Z" fill="white"/>
<path d="M534.7 74.7C534.7 74.8 534.7 74.9 534.6 75C534.6 75.1 534.5 75.1 534.4 75.2C534.3 75.2 534.2 75.2 534.1 75.2C534 75.2 533.9 75.1 533.9 75.1C533.8 75 533.8 74.9 533.8 74.9C533.8 74.8 533.8 74.7 533.8 74.6C533.9 74.5 534 74.4 534.1 74.4C534.2 74.3 534.4 74.4 534.5 74.4C534.6 74.4 534.7 74.5 534.7 74.6C534.6 74.5 534.7 74.6 534.7 74.7Z" fill="white"/>
<path d="M540.2 76.6C540.2 76.7 540.2 76.7 540.2 76.8C540.2 76.9 540.2 76.9 540.1 77L540 77.1C539.9 77.1 539.9 77.2 539.8 77.2C539.7 77.2 539.7 77.2 539.6 77.2C539.5 77.2 539.4 77.1 539.3 77C539.2 76.9 539.2 76.8 539.2 76.6C539.2 76.5 539.3 76.4 539.4 76.4C539.5 76.3 539.6 76.3 539.6 76.3C539.7 76.3 539.7 76.3 539.8 76.3C539.9 76.3 539.9 76.3 540 76.4C540.1 76.4 540.1 76.5 540.1 76.5C540.1 76.4 540.2 76.5 540.2 76.6Z" fill="white"/>
<path d="M527.2 70.1C527.2 70.2 527.2 70.3 527.1 70.4C527.1 70.4 527 70.5 526.9 70.5C526.8 70.5 526.8 70.5 526.7 70.6C526.6 70.6 526.6 70.6 526.5 70.6C526.4 70.6 526.4 70.6 526.3 70.5L526.2 70.4C526.2 70.3 526.2 70.3 526.1 70.2C526.1 70.1 526.1 70.1 526.1 70C526.1 69.9 526.1 69.9 526.2 69.8C526.3 69.7 526.4 69.6 526.5 69.6C526.6 69.6 526.7 69.6 526.8 69.6C526.9 69.6 527 69.7 527 69.8C527.2 69.9 527.3 70 527.2 70.1Z" fill="white"/>
<path d="M529.6 71.9C529.6 72 529.6 72.1 529.5 72.1C529.4 72.2 529.4 72.2 529.3 72.2C529.2 72.2 529.1 72.2 529.1 72.2C529 72.2 529 72.2 528.9 72.1C528.8 72.1 528.8 72 528.7 71.9C528.7 71.8 528.7 71.7 528.7 71.6C528.7 71.5 528.8 71.4 528.8 71.4C528.9 71.3 529 71.3 529.1 71.3C529.2 71.3 529.3 71.3 529.3 71.3C529.4 71.3 529.5 71.4 529.5 71.4C529.6 71.5 529.6 71.5 529.6 71.6C529.6 71.7 529.6 71.8 529.6 71.9Z" fill="white"/>
<path d="M554.6 77.7C554.6 77.8 554.5 77.9 554.4 77.9C554.3 77.9 554.2 78 554.1 78C554 78 553.9 78 553.8 77.9C553.7 77.8 553.7 77.8 553.6 77.7C553.6 77.6 553.6 77.5 553.6 77.4C553.6 77.3 553.7 77.2 553.8 77.2C553.9 77.1 554 77.1 554.1 77.1C554.2 77.1 554.4 77.1 554.5 77.2C554.6 77.3 554.7 77.4 554.7 77.5C554.6 77.5 554.6 77.6 554.6 77.7Z" fill="white"/>
<path d="M570.4 61C570.2 61.2 569.8 61.4 569.5 61.5C569.2 61.6 568.8 61.5999 568.5 61.5999C567.8 61.4999 567.1 61.2 566.6 60.7C566.3 60.5 566.1 60.2 565.9 59.9C565.7 59.6 565.7 59.2 565.6 58.9C565.6 58.5 565.8 58.1 566.1 57.7C566.2 57.5 566.4 57.3999 566.6 57.2999C566.8 57.1999 567 57.2 567.2 57.2C567.9 57.2 568.5 57.3 569.2 57.4C569.5 57.4 569.8 57.5999 570.1 57.7999C570.3 57.9999 570.5 58.2999 570.6 58.5999C570.9 59.6999 570.8 60.5 570.4 61Z" fill="white"/>
<path d="M572.5 45.8C572.4 45.6 572.3 45.4 572 45.3C571.8 45.2 571.6 45.1 571.3 45.1C570.6 45 570.2 44.8 570.3 43.9C570.3 42.8 570.1 41.7 569.6 40.8C569.1 39.8 568.4 39 567.5 38.4C565.5 37.1 563.2 36.3 560.8 36.3C559 36.1 557.2 35.9 555.4 35.6C556.3 35.1 557.1 34.7 557.8 34.2C560.1 32.9 562.1 31.2 563.8 29.2C564.6 28.2 565.1 27 565.3 25.7C565.5 24.4 565.3 23.1 564.7 21.9C563.4 19.4 561.1 18.8 558.6 18.9C556.7 18.9 554.8 19.4 553 20.2C548.9 22.2 545.1 24.6 541.7 27.5C540.3 28.6 538.9 29.8 537.4 31C537.6 30 537.8 29.2 537.9 28.3C538.4 25.7 538.1 23 536.8 20.6C536.5 20.1 536.2 19.6 535.7 19.3C535.2 18.9 534.7 18.7 534.2 18.6C534 18.5 533.8 18.6 533.6 18.6C533.4 18.7 533.2 18.8 533.1 19.1C532.9 19.3 532.9 19.5 532.9 19.8C532.9 20 532.9 20.3 533.1 20.5C533.3 20.8 533.6 21.1 533.9 21.4C534.4 21.8 534.8 22.4 535.1 23C535.4 23.6 535.5 24.3 535.5 24.9C535.7 28.5 534.3 31.6 533 34.8C532.9 35 532.7 35.2 532.5 35.4C531.3 36.6 530 37.7 528.8 39C526.7 41.4 524.6 43.7 523.5 46.8C523 48.3 522.9 49.8 523.3 51.3C523.7 52.8 524.5 54.2 525.6 55.2C526 55.5 526.5 55.7 527 55.7C527.5 55.7 528 55.5 528.4 55.1C529.1 54.4 529.6 53.5 530 52.6C534.7 42.8 541 34 548.8 26.4C551 24.1 553.9 22.6 557 22C558.8 21.7 560.9 23.7 561 25.3C561.1 27.6 559.9 29.1 558.4 30.4C556.2 32.3 553.6 33.9 550.9 35C549.5 35.6 548.2 36.4 547 37.3C546.4 37.8 545.9 38.4 545.7 39.2C545.5 39.9 545.4 40.7 545.6 41.5C545.8 42.2 546.1 42.7 546.7 43.1C547.2 43.5 547.9 43.7 548.5 43.7C552 43.9 555.6 44 559.1 44.3C560.6 44.4 562.1 44.4 563.2 45.7C563.2 45.8 563.1 45.8 563 45.9C562.9 45.9 562.8 46 562.8 46C555.4 47.3 548.3 49.5 541.4 52.5C540 53.1 538.8 54 537.7 55.1C535.9 57 535.8 59.9 538.5 61.4C541.5 63.1 544.6 62.8 547.8 62.3C553.5 61.4 558.5 58.8 563.3 55.5C565.8 53.8 567.8 51.5 569.3 48.9C569.7 48.2 570.1 47.8 571 47.9C571.3 48 571.5 48 571.8 47.9C572 47.8 572.3 47.7 572.5 47.4C572.6 47.2 572.7 47 572.8 46.8C572.7 46.2 572.6 46 572.5 45.8ZM563.9 48.9C563.5 50.2 562.7 51.4 561.6 52.2C557.3 55.7 552.5 58.4 547.1 59.3C546.4 59.4 545.8 59.4 545.1 59.5C544.4 59.5 543.6 59.5 542.9 59.2C542.6 59.1 542.4 59 542.2 58.8C542 58.6 541.8 58.4 541.7 58.1C541.6 57.8 541.5 57.5 541.6 57.3C541.6 57 541.7 56.7 541.8 56.5C542.1 55.8 542.6 55.2 543.3 54.8C546.4 52.8 549.8 51.9 553.2 50.8C556.4 49.8 559.7 48.9 563.1 48.3C564 47.9 564.1 48.2 563.9 48.9Z" fill="white"/>
</svg>
